<svg aria-hidden="true" style="position: absolute; width: 0; height: 0; overflow: hidden;" version="1.1" xmlns="http://www.w3.org/2000/svg" xmlns:xlink="http://www.w3.org/1999/xlink">
  <defs>
    <symbol id="icon-add" viewBox="0 0 32 32">
      <path d="M14.864 17.136h-7.261c-0.321 0-0.59-0.11-0.808-0.329s-0.327-0.49-0.327-0.812c0-0.322 0.109-0.591 0.327-0.806s0.488-0.323 0.808-0.323h7.261v-7.261c0-0.32 0.11-0.591 0.329-0.812s0.49-0.332 0.812-0.332c0.322 0 0.591 0.111 0.806 0.332s0.323 0.492 0.323 0.812v7.261h7.261c0.32 0 0.591 0.11 0.812 0.329s0.332 0.49 0.332 0.812c0 0.322-0.111 0.591-0.332 0.806s-0.492 0.323-0.812 0.323h-7.261v7.261c0 0.321-0.11 0.59-0.329 0.808s-0.49 0.327-0.812 0.327c-0.322 0-0.591-0.109-0.806-0.327s-0.323-0.488-0.323-0.808v-7.261z"></path>
    </symbol>
    <symbol id="icon-arrow_back" viewBox="0 0 32 32">
      <path stroke-linejoin="miter" stroke-linecap="butt" stroke-miterlimit="4" stroke-width="1.3333" d="M16.010 6.249c0.114 0 0.212 0.035 0.322 0.145 0.11 0.115 0.145 0.217 0.145 0.332-0 0.116-0.035 0.214-0.145 0.324l-8.482 8.482h17.88c0.162 0 0.262 0.047 0.348 0.132 0.083 0.082 0.129 0.177 0.129 0.337s-0.046 0.255-0.129 0.337c-0.085 0.084-0.186 0.131-0.348 0.132h-17.88l8.474 8.473c0.11 0.11 0.147 0.212 0.148 0.335v0.001c0.001 0.089-0.019 0.167-0.074 0.246l-0.069 0.082c-0.107 0.108-0.204 0.143-0.323 0.142-0.126-0.001-0.23-0.041-0.341-0.151l-9.264-9.264c-0.071-0.072-0.105-0.128-0.121-0.167v-0.001c-0.020-0.048-0.031-0.102-0.031-0.165s0.012-0.116 0.031-0.163v-0.001c0.016-0.038 0.050-0.095 0.121-0.167l9.267-9.267c0.121-0.116 0.227-0.152 0.342-0.152z"></path>
    </symbol>
    <symbol id="icon-arrow_forward" viewBox="0 0 32 32">
      <path stroke-linejoin="miter" stroke-linecap="butt" stroke-miterlimit="4" stroke-width="1.3333" d="M15.993 6.253c0.095 0.001 0.177 0.023 0.259 0.081l0.082 0.070 9.264 9.264c0.071 0.072 0.105 0.128 0.121 0.167v0.001c0.020 0.048 0.031 0.102 0.031 0.165s-0.012 0.116-0.031 0.163v0.001c-0.016 0.038-0.050 0.094-0.121 0.167l-9.272 9.264c-0.122 0.12-0.227 0.155-0.337 0.155-0.108-0-0.204-0.033-0.315-0.147l-0.007-0.007-0.069-0.081c-0.056-0.079-0.075-0.157-0.075-0.243s0.020-0.163 0.075-0.242l0.069-0.081 8.482-8.482h-17.88c-0.163-0-0.259-0.047-0.34-0.128h-0.001c-0.081-0.081-0.128-0.179-0.128-0.341s0.046-0.26 0.128-0.341h0.001c0.081-0.081 0.177-0.127 0.34-0.128h17.88l-8.474-8.474c-0.082-0.082-0.124-0.16-0.141-0.246l-0.008-0.090c-0.001-0.12 0.034-0.218 0.141-0.326l0.001-0.001c0.107-0.107 0.205-0.143 0.324-0.142z"></path>
    </symbol>
    <symbol id="icon-call" viewBox="0 0 32 32">
      <path stroke-linejoin="miter" stroke-linecap="butt" stroke-miterlimit="4" stroke-width="1.3333" d="M5.492 4.46h4.667c0.245 0 0.415 0.073 0.555 0.204 0.125 0.117 0.229 0.27 0.307 0.471l0.069 0.217 0.887 4.018c0.044 0.309 0.034 0.556-0.013 0.751-0.042 0.175-0.124 0.319-0.257 0.445l-0.009 0.008-3.729 3.678 0.267 0.448c0.569 0.956 1.174 1.853 1.814 2.687 0.644 0.839 1.359 1.637 2.143 2.393 0.818 0.844 1.673 1.611 2.565 2.298 0.9 0.693 1.841 1.3 2.822 1.819l0.441 0.233 3.568-3.661c0.186-0.202 0.382-0.323 0.59-0.385 0.175-0.052 0.348-0.070 0.522-0.057l0.176 0.023 3.76 0.832c0.221 0.061 0.397 0.157 0.539 0.283l0.133 0.137c0.156 0.188 0.232 0.399 0.232 0.658v4.547c0 0.316-0.099 0.545-0.29 0.734-0.195 0.193-0.426 0.29-0.734 0.29-2.5 0-5.061-0.6-7.686-1.82-2.624-1.219-5.065-2.953-7.323-5.211-2.116-2.116-3.773-4.395-4.979-6.836l-0.236-0.491c-1.223-2.629-1.824-5.188-1.824-7.682 0-0.237 0.055-0.427 0.164-0.589l0.128-0.152c0.192-0.193 0.421-0.292 0.733-0.292zM5.422 6.1c0.041 0.951 0.191 1.948 0.444 2.991 0.255 1.051 0.655 2.21 1.194 3.475l0.385 0.905 3.648-3.628-0.077-0.355-0.758-3.556-0.113-0.527h-4.754l0.030 0.695zM26.595 21.836l-4.207-0.87-0.257 0.267-3.259 3.415 0.844 0.393c0.927 0.431 1.931 0.78 3.010 1.051 1.081 0.271 2.137 0.434 3.168 0.486l0.701 0.035v-4.777z"></path>
    </symbol>
    <symbol id="icon-close" viewBox="0 0 32 32">
      <path stroke-linejoin="miter" stroke-linecap="butt" stroke-miterlimit="4" stroke-width="1.3333" d="M23.466 7.9c0.219 0 0.355 0.065 0.462 0.172s0.172 0.242 0.172 0.461c0 0.219-0.065 0.355-0.172 0.462l-7.005 7.005 7.005 7.004c0.107 0.107 0.172 0.243 0.172 0.462s-0.065 0.355-0.172 0.462-0.243 0.172-0.462 0.172c-0.219-0-0.355-0.065-0.462-0.172l-7.004-7.005-7.005 7.005c-0.107 0.107-0.243 0.172-0.462 0.172s-0.354-0.065-0.461-0.172c-0.107-0.107-0.172-0.243-0.172-0.462s0.065-0.355 0.172-0.462l7.004-7.004-7.004-7.005c-0.107-0.107-0.172-0.243-0.172-0.462s0.065-0.354 0.172-0.461 0.242-0.172 0.461-0.172c0.219 0 0.355 0.065 0.462 0.172l7.005 7.004 7.004-7.004c0.107-0.107 0.243-0.172 0.462-0.172z"></path>
    </symbol>
    <symbol id="icon-Facebook" viewBox="0 0 32 32">
      <path d="M29.333 16.405c0-7.409-5.969-13.415-13.333-13.415s-13.333 6.006-13.333 13.415c0 6.696 4.876 12.245 11.25 13.252v-9.374h-3.385v-3.878h3.385v-2.955c0-3.362 1.991-5.219 5.036-5.219 1.459 0 2.985 0.262 2.985 0.262v3.301h-1.681c-1.656 0-2.173 1.034-2.173 2.095v2.516h3.698l-0.591 3.878h-3.107v9.374c6.374-1.006 11.25-6.556 11.25-13.252z"></path>
    </symbol>
    <symbol id="icon-Instagram" viewBox="0 0 32 32">
      <path d="M15.998 6.161c3.206 0 3.585 0.014 4.846 0.071 1.172 0.052 1.804 0.248 2.226 0.412 0.558 0.216 0.961 0.478 1.378 0.895 0.422 0.422 0.679 0.82 0.9 1.378 0.164 0.422 0.361 1.059 0.412 2.226 0.056 1.266 0.071 1.645 0.071 4.847s-0.014 3.585-0.071 4.847c-0.052 1.172-0.248 1.804-0.412 2.227-0.216 0.558-0.478 0.961-0.895 1.377-0.422 0.422-0.82 0.679-1.378 0.9-0.422 0.164-1.060 0.361-2.226 0.412-1.266 0.056-1.645 0.071-4.847 0.071s-3.585-0.014-4.847-0.071c-1.172-0.052-1.804-0.248-2.226-0.412-0.558-0.216-0.961-0.478-1.378-0.895-0.422-0.422-0.679-0.82-0.9-1.378-0.164-0.422-0.361-1.060-0.412-2.226-0.056-1.266-0.071-1.645-0.071-4.847s0.014-3.585 0.071-4.847c0.052-1.172 0.248-1.804 0.412-2.226 0.216-0.558 0.478-0.961 0.895-1.378 0.422-0.422 0.82-0.679 1.378-0.9 0.422-0.164 1.059-0.361 2.226-0.412 1.261-0.056 1.641-0.071 4.847-0.071h0.001zM15.998 4.001c-3.258 0-3.665 0.014-4.945 0.071-1.275 0.056-2.151 0.262-2.91 0.558-0.792 0.309-1.462 0.717-2.127 1.387-0.67 0.666-1.078 1.336-1.387 2.123-0.295 0.764-0.502 1.636-0.558 2.91-0.056 1.285-0.071 1.692-0.071 4.949s0.014 3.665 0.071 4.945c0.056 1.275 0.262 2.151 0.558 2.91 0.31 0.792 0.717 1.462 1.387 2.127 0.665 0.665 1.336 1.078 2.123 1.383 0.764 0.295 1.636 0.502 2.91 0.558 1.279 0.056 1.687 0.071 4.945 0.071s3.666-0.014 4.945-0.071c1.275-0.056 2.151-0.262 2.91-0.558 0.787-0.305 1.458-0.717 2.123-1.383s1.078-1.336 1.383-2.123c0.295-0.764 0.502-1.635 0.558-2.91 0.056-1.279 0.071-1.687 0.071-4.945s-0.014-3.665-0.071-4.945c-0.056-1.275-0.262-2.151-0.558-2.91-0.295-0.797-0.703-1.467-1.373-2.133-0.665-0.665-1.336-1.078-2.123-1.383-0.764-0.295-1.635-0.502-2.91-0.558-1.284-0.061-1.692-0.075-4.949-0.075l-0.001 0.001z"></path>
      <path d="M15.998 9.836c-3.402 0-6.163 2.76-6.163 6.163s2.76 6.163 6.163 6.163c3.403 0 6.163-2.76 6.163-6.163s-2.76-6.163-6.163-6.163zM15.998 19.997c-2.208 0-3.998-1.79-3.998-3.998s1.79-3.998 3.998-3.998c2.208 0 3.998 1.79 3.998 3.998s-1.79 3.998-3.998 3.998z"></path>
      <path d="M23.843 9.592c0 0.795-0.644 1.439-1.439 1.439s-1.439-0.644-1.439-1.439 0.644-1.439 1.439-1.439c0.795 0 1.439 0.644 1.439 1.439z"></path>
    </symbol>
    <symbol id="icon-location_on" viewBox="0 0 32 32">
      <path stroke-linejoin="miter" stroke-linecap="butt" stroke-miterlimit="4" stroke-width="1.3333" d="M16 3.126c2.699 0 5.071 0.939 7.141 2.844 2.031 1.869 3.066 4.38 3.066 7.607-0 1.314-0.289 2.627-0.879 3.944-0.605 1.351-1.363 2.645-2.277 3.883-0.922 1.248-1.923 2.413-3.004 3.495-1.097 1.098-2.121 2.069-3.069 2.914l-0.008 0.007-0.006 0.006c-0.121 0.114-0.26 0.197-0.423 0.25-0.195 0.063-0.378 0.093-0.551 0.093s-0.351-0.029-0.537-0.091c-0.154-0.051-0.285-0.131-0.4-0.243l-0.012-0.012-0.013-0.010c-0.953-0.844-1.979-1.815-3.076-2.913-1.081-1.081-2.082-2.247-3.004-3.495-0.914-1.237-1.672-2.531-2.273-3.881-0.587-1.318-0.875-2.631-0.875-3.945 0-3.227 1.035-5.738 3.064-7.607 2.067-1.904 4.436-2.844 7.135-2.844zM16 4.072c-2.58 0-4.787 0.892-6.576 2.671-1.799 1.79-2.686 4.088-2.686 6.835 0 1.893 0.792 3.945 2.264 6.138 1.473 2.194 3.661 4.633 6.543 7.314l0.449 0.418 0.453-0.411c2.95-2.677 5.161-5.118 6.604-7.322 1.438-2.196 2.209-4.248 2.21-6.137 0-2.747-0.887-5.045-2.686-6.835v-0.001c-1.789-1.779-3.995-2.669-6.575-2.669zM15.997 11.603c0.488 0 0.885 0.164 1.228 0.505s0.505 0.735 0.505 1.223c-0 0.488-0.164 0.883-0.504 1.223s-0.735 0.503-1.224 0.503c-0.489-0-0.884-0.164-1.223-0.501s-0.503-0.729-0.503-1.217c0-0.429 0.126-0.787 0.384-1.099l0.119-0.13c0.337-0.341 0.73-0.505 1.217-0.505z"></path>
    </symbol>
    <symbol id="icon-mail" viewBox="0 0 32 32">
      <path stroke-linejoin="miter" stroke-linecap="butt" stroke-miterlimit="4" stroke-width="1.3333" d="M4.072 7.656v17.605h23.857v-17.077l-11.642 7.664c-0.080 0.042-0.15 0.076-0.211 0.1-0.004 0.001-0.027 0.008-0.075 0.008s-0.072-0.007-0.075-0.008c-0.061-0.024-0.131-0.058-0.212-0.1l-10.307-6.788v-0.533l10.595 6.94 12.841-8.387c0.021 0.104 0.033 0.211 0.033 0.323v17.19c0 0.428-0.15 0.793-0.482 1.124s-0.698 0.48-1.13 0.48h-22.523c-0.429 0-0.793-0.15-1.124-0.48l-0.116-0.125c-0.25-0.297-0.365-0.623-0.365-0.999v-17.19c0-0.118 0.012-0.231 0.035-0.34l0.902 0.591zM4.738 5.793h22.523c0.431 0 0.797 0.151 1.129 0.483h0.001c0.146 0.146 0.255 0.3 0.333 0.462h-25.444c0.078-0.163 0.187-0.317 0.333-0.464h0.001c0.331-0.332 0.694-0.482 1.122-0.482z"></path>
    </symbol>
    <symbol id="icon-menu" viewBox="0 0 32 32">
      <path d="M4.936 24.295c-0.321 0-0.59-0.11-0.808-0.329s-0.327-0.493-0.327-0.82c0-0.322 0.109-0.591 0.327-0.807s0.488-0.323 0.808-0.323h22.127c0.321 0 0.591 0.11 0.812 0.329s0.331 0.49 0.331 0.812c0 0.328-0.11 0.599-0.331 0.814s-0.492 0.323-0.812 0.323h-22.127zM4.936 17.136c-0.321 0-0.59-0.11-0.808-0.329s-0.327-0.49-0.327-0.812c0-0.322 0.109-0.591 0.327-0.806s0.488-0.323 0.808-0.323h22.127c0.321 0 0.591 0.11 0.812 0.329s0.331 0.49 0.331 0.812c0 0.322-0.11 0.591-0.331 0.806s-0.492 0.323-0.812 0.323h-22.127zM4.936 9.984c-0.321 0-0.59-0.11-0.808-0.329s-0.327-0.493-0.327-0.82c0-0.322 0.109-0.591 0.327-0.806s0.488-0.323 0.808-0.323h22.127c0.321 0 0.591 0.11 0.812 0.329s0.331 0.49 0.331 0.812c0 0.328-0.11 0.599-0.331 0.815s-0.492 0.323-0.812 0.323h-22.127z"></path>
    </symbol>
    <symbol id="icon-Relume" viewBox="0 0 32 32">
      <path d="M27.64 9.493c0.235 0.405 0.359 0.865 0.36 1.333v10.333c-0.004 0.468-0.128 0.927-0.36 1.333l-0.2 0.333c-0.228 0.408-0.565 0.745-0.973 0.973l-8.947 5.173c-0.405 0.235-0.865 0.359-1.333 0.36h-0.373c-0.469 0.004-0.93-0.12-1.333-0.36l-8.96-5.16c-0.399-0.24-0.734-0.574-0.973-0.973l-0.187-0.333c-0.235-0.405-0.359-0.865-0.36-1.333v-10.333c0.001-0.468 0.125-0.928 0.36-1.333l0.187-0.333c0.234-0.404 0.569-0.74 0.973-0.973l8.947-5.173c0.405-0.235 0.865-0.359 1.333-0.36h0.387c0.468 0.001 0.928 0.125 1.333 0.36l8.947 5.16c0.406 0.235 0.746 0.57 0.987 0.973l0.187 0.333zM15.8 5.333l-7.8 4.507 8 4.613 8-4.613-7.813-4.507h-0.387zM17.333 26l7.8-4.507 0.2-0.333v-9.013l-8 4.627v9.227z"></path>
    </symbol>
    <symbol id="icon-X" viewBox="0 0 32 32">
      <path d="M22.901 5.657h3.68l-8.040 9.037 9.459 12.297h-7.406l-5.801-7.458-6.637 7.458h-3.682l8.6-9.666-9.074-11.668h7.594l5.243 6.817 6.064-6.817zM21.61 24.824h2.039l-13.163-17.115h-2.188l13.312 17.115z"></path>
    </symbol>
  </defs>
</svg>