<svg aria-hidden="true" style="position: absolute; width: 0; height: 0; overflow: hidden;" version="1.1" xmlns="http://www.w3.org/2000/svg" xmlns:xlink="http://www.w3.org/1999/xlink">
    <defs>
        <symbol id="icon-call" viewBox="0 0 32 32">
            <path stroke-width="1.3333" stroke-miterlimit="4" stroke-linecap="butt" stroke-linejoin="miter" d="M5.492 4.46h4.667c0.245 0 0.415 0.073 0.555 0.204 0.125 0.117 0.229 0.27 0.307 0.471l0.069 0.217 0.887 4.018c0.044 0.309 0.034 0.556-0.013 0.751-0.042 0.175-0.124 0.319-0.257 0.445l-0.009 0.008-3.729 3.678 0.267 0.448c0.569 0.956 1.174 1.853 1.814 2.687 0.644 0.839 1.359 1.637 2.143 2.393 0.818 0.844 1.673 1.611 2.565 2.298 0.9 0.693 1.841 1.3 2.822 1.819l0.441 0.233 3.568-3.661c0.186-0.202 0.382-0.323 0.59-0.385 0.175-0.052 0.348-0.070 0.522-0.057l0.176 0.023 3.76 0.832c0.221 0.061 0.397 0.157 0.539 0.283l0.133 0.137c0.156 0.188 0.232 0.399 0.232 0.658v4.547c0 0.316-0.099 0.545-0.29 0.734-0.195 0.193-0.426 0.29-0.734 0.29-2.5 0-5.061-0.6-7.686-1.82-2.624-1.219-5.065-2.953-7.323-5.211-2.116-2.116-3.773-4.395-4.979-6.836l-0.236-0.491c-1.223-2.629-1.824-5.188-1.824-7.682 0-0.237 0.055-0.427 0.164-0.589l0.128-0.152c0.192-0.193 0.421-0.292 0.733-0.292zM5.422 6.1c0.041 0.951 0.191 1.948 0.444 2.991 0.255 1.051 0.655 2.21 1.194 3.475l0.385 0.905 3.648-3.628-0.077-0.355-0.758-3.556-0.113-0.527h-4.754l0.030 0.695zM26.595 21.836l-4.207-0.87-0.257 0.267-3.259 3.415 0.844 0.393c0.927 0.431 1.931 0.78 3.010 1.051 1.081 0.271 2.137 0.434 3.168 0.486l0.701 0.035v-4.777z"></path>
        </symbol>
        <symbol id="icon-add" viewBox="0 0 32 32">
            <path d="M14.864 17.136h-7.261c-0.321 0-0.59-0.11-0.808-0.329s-0.327-0.49-0.327-0.812c0-0.322 0.109-0.591 0.327-0.806s0.488-0.323 0.808-0.323h7.261v-7.261c0-0.32 0.11-0.591 0.329-0.812s0.49-0.332 0.812-0.332c0.322 0 0.591 0.111 0.806 0.332s0.323 0.492 0.323 0.812v7.261h7.261c0.32 0 0.591 0.11 0.812 0.329s0.332 0.49 0.332 0.812c0 0.322-0.111 0.591-0.332 0.806s-0.492 0.323-0.812 0.323h-7.261v7.261c0 0.321-0.11 0.59-0.329 0.808s-0.49 0.327-0.812 0.327c-0.322 0-0.591-0.109-0.806-0.327s-0.323-0.488-0.323-0.808v-7.261z"></path>
        </symbol>
        <symbol id="icon-arrow_back" viewBox="0 0 32 32">
            <path stroke-width="1.3333" stroke-miterlimit="4" stroke-linecap="butt" stroke-linejoin="miter" d="M16.010 6.249c0.114 0 0.212 0.035 0.322 0.145 0.11 0.115 0.145 0.217 0.145 0.332-0 0.116-0.035 0.214-0.145 0.324l-8.482 8.482h17.88c0.162 0 0.262 0.047 0.348 0.132 0.083 0.082 0.129 0.177 0.129 0.337s-0.046 0.255-0.129 0.337c-0.085 0.084-0.186 0.131-0.348 0.132h-17.88l8.474 8.473c0.11 0.11 0.147 0.212 0.148 0.335v0.001c0.001 0.089-0.019 0.167-0.074 0.246l-0.069 0.082c-0.107 0.108-0.204 0.143-0.323 0.142-0.126-0.001-0.23-0.041-0.341-0.151l-9.264-9.264c-0.071-0.072-0.105-0.128-0.121-0.167v-0.001c-0.020-0.048-0.031-0.102-0.031-0.165s0.012-0.116 0.031-0.163v-0.001c0.016-0.038 0.050-0.095 0.121-0.167l9.267-9.267c0.121-0.116 0.227-0.152 0.342-0.152z"></path>
        </symbol>
        <symbol id="icon-arrow_forward" viewBox="0 0 32 32">
            <path stroke-width="1.3333" stroke-miterlimit="4" stroke-linecap="butt" stroke-linejoin="miter" d="M15.993 6.253c0.095 0.001 0.177 0.023 0.259 0.081l0.082 0.070 9.264 9.264c0.071 0.072 0.105 0.128 0.121 0.167v0.001c0.020 0.048 0.031 0.102 0.031 0.165s-0.012 0.116-0.031 0.163v0.001c-0.016 0.038-0.050 0.094-0.121 0.167l-9.272 9.264c-0.122 0.12-0.227 0.155-0.337 0.155-0.108-0-0.204-0.033-0.315-0.147l-0.007-0.007-0.069-0.081c-0.056-0.079-0.075-0.157-0.075-0.243s0.020-0.163 0.075-0.242l0.069-0.081 8.482-8.482h-17.88c-0.163-0-0.259-0.047-0.34-0.128h-0.001c-0.081-0.081-0.128-0.179-0.128-0.341s0.046-0.26 0.128-0.341h0.001c0.081-0.081 0.177-0.127 0.34-0.128h17.88l-8.474-8.474c-0.082-0.082-0.124-0.16-0.141-0.246l-0.008-0.090c-0.001-0.12 0.034-0.218 0.141-0.326l0.001-0.001c0.107-0.107 0.205-0.143 0.324-0.142z"></path>
        </symbol>
        <symbol id="icon-close" viewBox="0 0 32 32">
            <path stroke-width="1.3333" stroke-miterlimit="4" stroke-linecap="butt" stroke-linejoin="miter" d="M23.466 7.9c0.219 0 0.355 0.065 0.462 0.172s0.172 0.242 0.172 0.461c0 0.219-0.065 0.355-0.172 0.462l-7.005 7.005 7.005 7.004c0.107 0.107 0.172 0.243 0.172 0.462s-0.065 0.355-0.172 0.462-0.243 0.172-0.462 0.172c-0.219-0-0.355-0.065-0.462-0.172l-7.004-7.005-7.005 7.005c-0.107 0.107-0.243 0.172-0.462 0.172s-0.354-0.065-0.461-0.172c-0.107-0.107-0.172-0.243-0.172-0.462s0.065-0.355 0.172-0.462l7.004-7.004-7.004-7.005c-0.107-0.107-0.172-0.243-0.172-0.462s0.065-0.354 0.172-0.461 0.242-0.172 0.461-0.172c0.219 0 0.355 0.065 0.462 0.172l7.005 7.004 7.004-7.004c0.107-0.107 0.243-0.172 0.462-0.172z"></path>
        </symbol>
        <symbol id="icon-Facebook" viewBox="0 0 32 32">
            <path d="M29.333 16.405c0-7.409-5.969-13.415-13.333-13.415s-13.333 6.006-13.333 13.415c0 6.696 4.876 12.245 11.25 13.252v-9.374h-3.385v-3.878h3.385v-2.955c0-3.362 1.991-5.219 5.036-5.219 1.459 0 2.985 0.262 2.985 0.262v3.301h-1.681c-1.656 0-2.173 1.034-2.173 2.095v2.516h3.698l-0.591 3.878h-3.107v9.374c6.374-1.006 11.25-6.556 11.25-13.252z"></path>
        </symbol>
        <symbol id="icon-Instagram" viewBox="0 0 32 32">
            <path d="M15.998 6.161c3.206 0 3.585 0.014 4.846 0.071 1.172 0.052 1.804 0.248 2.226 0.412 0.558 0.216 0.961 0.478 1.378 0.895 0.422 0.422 0.679 0.82 0.9 1.378 0.164 0.422 0.361 1.059 0.412 2.226 0.056 1.266 0.071 1.645 0.071 4.847s-0.014 3.585-0.071 4.847c-0.052 1.172-0.248 1.804-0.412 2.227-0.216 0.558-0.478 0.961-0.895 1.377-0.422 0.422-0.82 0.679-1.378 0.9-0.422 0.164-1.060 0.361-2.226 0.412-1.266 0.056-1.645 0.071-4.847 0.071s-3.585-0.014-4.847-0.071c-1.172-0.052-1.804-0.248-2.226-0.412-0.558-0.216-0.961-0.478-1.378-0.895-0.422-0.422-0.679-0.82-0.9-1.378-0.164-0.422-0.361-1.060-0.412-2.226-0.056-1.266-0.071-1.645-0.071-4.847s0.014-3.585 0.071-4.847c0.052-1.172 0.248-1.804 0.412-2.226 0.216-0.558 0.478-0.961 0.895-1.378 0.422-0.422 0.82-0.679 1.378-0.9 0.422-0.164 1.059-0.361 2.226-0.412 1.261-0.056 1.641-0.071 4.847-0.071h0.001zM15.998 4.001c-3.258 0-3.665 0.014-4.945 0.071-1.275 0.056-2.151 0.262-2.91 0.558-0.792 0.309-1.462 0.717-2.127 1.387-0.67 0.666-1.078 1.336-1.387 2.123-0.295 0.764-0.502 1.636-0.558 2.91-0.056 1.285-0.071 1.692-0.071 4.949s0.014 3.665 0.071 4.945c0.056 1.275 0.262 2.151 0.558 2.91 0.31 0.792 0.717 1.462 1.387 2.127 0.665 0.665 1.336 1.078 2.123 1.383 0.764 0.295 1.636 0.502 2.91 0.558 1.279 0.056 1.687 0.071 4.945 0.071s3.666-0.014 4.945-0.071c1.275-0.056 2.151-0.262 2.91-0.558 0.787-0.305 1.458-0.717 2.123-1.383s1.078-1.336 1.383-2.123c0.295-0.764 0.502-1.635 0.558-2.91 0.056-1.279 0.071-1.687 0.071-4.945s-0.014-3.665-0.071-4.945c-0.056-1.275-0.262-2.151-0.558-2.91-0.295-0.797-0.703-1.467-1.373-2.133-0.665-0.665-1.336-1.078-2.123-1.383-0.764-0.295-1.635-0.502-2.91-0.558-1.284-0.061-1.692-0.075-4.949-0.075l-0.001 0.001z"></path>
            <path d="M15.998 9.836c-3.402 0-6.163 2.76-6.163 6.163s2.76 6.163 6.163 6.163c3.403 0 6.163-2.76 6.163-6.163s-2.76-6.163-6.163-6.163zM15.998 19.997c-2.208 0-3.998-1.79-3.998-3.998s1.79-3.998 3.998-3.998c2.208 0 3.998 1.79 3.998 3.998s-1.79 3.998-3.998 3.998z"></path>
            <path d="M23.843 9.592c0 0.795-0.644 1.439-1.439 1.439s-1.439-0.644-1.439-1.439 0.644-1.439 1.439-1.439c0.795 0 1.439 0.644 1.439 1.439z"></path>
        </symbol>
        <symbol id="icon-location_on" viewBox="0 0 32 32">
            <path stroke-width="1.3333" stroke-miterlimit="4" stroke-linecap="butt" stroke-linejoin="miter" d="M16 3.126c2.699 0 5.071 0.939 7.141 2.844 2.031 1.869 3.066 4.38 3.066 7.607-0 1.314-0.289 2.627-0.879 3.944-0.605 1.351-1.363 2.645-2.277 3.883-0.922 1.248-1.923 2.413-3.004 3.495-1.097 1.098-2.121 2.069-3.069 2.914l-0.008 0.007-0.006 0.006c-0.121 0.114-0.26 0.197-0.423 0.25-0.195 0.063-0.378 0.093-0.551 0.093s-0.351-0.029-0.537-0.091c-0.154-0.051-0.285-0.131-0.4-0.243l-0.012-0.012-0.013-0.010c-0.953-0.844-1.979-1.815-3.076-2.913-1.081-1.081-2.082-2.247-3.004-3.495-0.914-1.237-1.672-2.531-2.273-3.881-0.587-1.318-0.875-2.631-0.875-3.945 0-3.227 1.035-5.738 3.064-7.607 2.067-1.904 4.436-2.844 7.135-2.844zM16 4.072c-2.58 0-4.787 0.892-6.576 2.671-1.799 1.79-2.686 4.088-2.686 6.835 0 1.893 0.792 3.945 2.264 6.138 1.473 2.194 3.661 4.633 6.543 7.314l0.449 0.418 0.453-0.411c2.95-2.677 5.161-5.118 6.604-7.322 1.438-2.196 2.209-4.248 2.21-6.137 0-2.747-0.887-5.045-2.686-6.835v-0.001c-1.789-1.779-3.995-2.669-6.575-2.669zM15.997 11.603c0.488 0 0.885 0.164 1.228 0.505s0.505 0.735 0.505 1.223c-0 0.488-0.164 0.883-0.504 1.223s-0.735 0.503-1.224 0.503c-0.489-0-0.884-0.164-1.223-0.501s-0.503-0.729-0.503-1.217c0-0.429 0.126-0.787 0.384-1.099l0.119-0.13c0.337-0.341 0.73-0.505 1.217-0.505z"></path>
        </symbol>
        <symbol id="icon-mail" viewBox="0 0 32 32">
            <path stroke-width="1.3333" stroke-miterlimit="4" stroke-linecap="butt" stroke-linejoin="miter" d="M4.072 7.656v17.605h23.857v-17.077l-11.642 7.664c-0.080 0.042-0.15 0.076-0.211 0.1-0.004 0.001-0.027 0.008-0.075 0.008s-0.072-0.007-0.075-0.008c-0.061-0.024-0.131-0.058-0.212-0.1l-10.307-6.788v-0.533l10.595 6.94 12.841-8.387c0.021 0.104 0.033 0.211 0.033 0.323v17.19c0 0.428-0.15 0.793-0.482 1.124s-0.698 0.48-1.13 0.48h-22.523c-0.429 0-0.793-0.15-1.124-0.48l-0.116-0.125c-0.25-0.297-0.365-0.623-0.365-0.999v-17.19c0-0.118 0.012-0.231 0.035-0.34l0.902 0.591zM4.738 5.793h22.523c0.431 0 0.797 0.151 1.129 0.483h0.001c0.146 0.146 0.255 0.3 0.333 0.462h-25.444c0.078-0.163 0.187-0.317 0.333-0.464h0.001c0.331-0.332 0.694-0.482 1.122-0.482z"></path>
        </symbol>
        <symbol id="icon-menu" viewBox="0 0 32 32">
            <path d="M4.936 24.295c-0.321 0-0.59-0.11-0.808-0.329s-0.327-0.493-0.327-0.82c0-0.322 0.109-0.591 0.327-0.807s0.488-0.323 0.808-0.323h22.127c0.321 0 0.591 0.11 0.812 0.329s0.331 0.49 0.331 0.812c0 0.328-0.11 0.599-0.331 0.814s-0.492 0.323-0.812 0.323h-22.127zM4.936 17.136c-0.321 0-0.59-0.11-0.808-0.329s-0.327-0.49-0.327-0.812c0-0.322 0.109-0.591 0.327-0.806s0.488-0.323 0.808-0.323h22.127c0.321 0 0.591 0.11 0.812 0.329s0.331 0.49 0.331 0.812c0 0.322-0.11 0.591-0.331 0.806s-0.492 0.323-0.812 0.323h-22.127zM4.936 9.984c-0.321 0-0.59-0.11-0.808-0.329s-0.327-0.493-0.327-0.82c0-0.322 0.109-0.591 0.327-0.806s0.488-0.323 0.808-0.323h22.127c0.321 0 0.591 0.11 0.812 0.329s0.331 0.49 0.331 0.812c0 0.328-0.11 0.599-0.331 0.815s-0.492 0.323-0.812 0.323h-22.127z"></path>
        </symbol>
        <symbol id="icon-Relume" viewBox="0 0 32 32">
            <path d="M27.64 9.493c0.235 0.405 0.359 0.865 0.36 1.333v10.333c-0.004 0.468-0.128 0.927-0.36 1.333l-0.2 0.333c-0.228 0.408-0.565 0.745-0.973 0.973l-8.947 5.173c-0.405 0.235-0.865 0.359-1.333 0.36h-0.373c-0.469 0.004-0.93-0.12-1.333-0.36l-8.96-5.16c-0.399-0.24-0.734-0.574-0.973-0.973l-0.187-0.333c-0.235-0.405-0.359-0.865-0.36-1.333v-10.333c0.001-0.468 0.125-0.928 0.36-1.333l0.187-0.333c0.234-0.404 0.569-0.74 0.973-0.973l8.947-5.173c0.405-0.235 0.865-0.359 1.333-0.36h0.387c0.468 0.001 0.928 0.125 1.333 0.36l8.947 5.16c0.406 0.235 0.746 0.57 0.987 0.973l0.187 0.333zM15.8 5.333l-7.8 4.507 8 4.613 8-4.613-7.813-4.507h-0.387zM17.333 26l7.8-4.507 0.2-0.333v-9.013l-8 4.627v9.227z"></path>
        </symbol>
        <symbol id="icon-X" viewBox="0 0 32 32">
            <path d="M22.901 5.657h3.68l-8.040 9.037 9.459 12.297h-7.406l-5.801-7.458-6.637 7.458h-3.682l8.6-9.666-9.074-11.668h7.594l5.243 6.817 6.064-6.817zM21.61 24.824h2.039l-13.163-17.115h-2.188l13.312 17.115z"></path>
        </symbol>
        <symbol id="icon-decoration" viewBox="0 0 457 32">
            <path d="M199.573 14.084h-172.64c-0.621 0-1.124 0.503-1.124 1.123s0.503 1.123 1.124 1.123h172.64c0.62 0 1.123-0.503 1.123-1.123s-0.503-1.123-1.123-1.123z"></path>
            <path d="M19.11 4.43c6.823 0 13.189 1.829 16.504 3.724 4.258 2.433 23.296 14.157 23.488 14.275 0.456 0.282 0.598 0.88 0.317 1.336-0.28 0.456-0.877 0.6-1.335 0.317-0.191-0.117-19.202-11.825-23.434-14.243-4.456-2.547-14.83-4.968-23.939-2.362-5.222 1.492-7.321 4.277-8.162 6.351-0.992 2.446-0.764 5.333 0.609 7.717 2.72 4.723 9.835 6.648 18.127 4.902 5.019-1.057 7.86-4.278 7.985-6.771 0.094-1.894-1.305-3.398-3.94-4.234l-0.248-0.076 0.504-1.876-0.279 0.931 0.329-0.915 0.283 0.086c3.5 1.111 5.428 3.364 5.288 6.18-0.192 3.847-4.197 7.453-9.524 8.574-9.128 1.92-17.061-0.366-20.208-5.833-1.67-2.899-1.941-6.419-0.727-9.416 1.003-2.474 3.452-5.781 9.428-7.488 2.92-0.835 5.968-1.179 8.931-1.179z"></path>
            <path d="M40.636 10.234c0.191 0.119 19.23 11.844 23.487 14.276 4.756 2.717 15.789 5.299 25.436 2.544 5.975-1.707 8.425-5.015 9.428-7.489 1.214-2.997 0.943-6.518-0.728-9.416-2.405-4.181-7.613-6.503-14.015-6.503-1.967 0-4.046 0.219-6.192 0.671-1.282 0.268-2.502 0.682-3.628 1.227-3.809 1.846-6.123 5.004-5.894 8.047 0.013 0.174 0.041 0.369 0.080 0.571 0.525-0.395 1.149-0.693 1.862-0.873-0.067-2.169 1.83-4.56 4.798-5.998 0.982-0.477 2.054-0.837 3.181-1.075 8.293-1.743 15.406 0.177 18.126 4.901 1.374 2.385 1.601 5.271 0.61 7.718-0.841 2.074-2.939 4.859-8.161 6.351-9.108 2.604-19.482 0.184-23.94-2.362-4.232-2.418-23.242-14.125-23.433-14.244-0.454-0.28-1.053-0.138-1.336 0.317-0.28 0.456-0.139 1.055 0.318 1.336z"></path>
            <path d="M96.058 10.234c0.191 0.119 19.23 11.844 23.487 14.276 4.756 2.717 15.789 5.299 25.436 2.544 5.975-1.707 8.426-5.015 9.429-7.489 1.214-2.997 0.943-6.518-0.728-9.416-2.405-4.181-7.613-6.503-14.016-6.503-1.966 0-4.045 0.219-6.191 0.671-1.282 0.268-2.502 0.682-3.628 1.227-3.809 1.846-6.123 5.004-5.894 8.047 0.013 0.174 0.041 0.369 0.079 0.571 0.525-0.395 1.15-0.693 1.862-0.873-0.067-2.169 1.83-4.56 4.798-5.998 0.983-0.477 2.054-0.837 3.181-1.075 8.293-1.743 15.406 0.177 18.126 4.901 1.373 2.385 1.6 5.271 0.61 7.718-0.84 2.074-2.939 4.859-8.161 6.351-9.108 2.604-19.482 0.184-23.94-2.362-4.232-2.418-23.242-14.125-23.433-14.244-0.454-0.28-1.053-0.138-1.336 0.317-0.28 0.456-0.139 1.055 0.318 1.336z"></path>
            <path d="M28.808 15.594l-3.581-3.581-3.581 3.581 3.581 3.581 3.581-3.581z"></path>
            <path d="M22.477 15.594l-3.581-3.581-3.581 3.581 3.581 3.581 3.581-3.581z"></path>
            <path d="M256.76 14.084h172.64c0.62 0 1.123 0.503 1.123 1.123s-0.503 1.123-1.123 1.123h-172.64c-0.62 0-1.123-0.503-1.123-1.123s0.503-1.123 1.123-1.123z"></path>
            <path d="M437.224 4.43c-6.822 0-13.189 1.829-16.503 3.724-4.259 2.433-23.296 14.157-23.49 14.275-0.456 0.282-0.597 0.88-0.315 1.336 0.279 0.456 0.876 0.6 1.335 0.317 0.19-0.117 19.202-11.825 23.433-14.243 4.457-2.547 14.831-4.968 23.939-2.362 5.222 1.492 7.32 4.277 8.162 6.351 0.992 2.446 0.763 5.333-0.61 7.717-2.72 4.723-9.835 6.648-18.127 4.902-5.019-1.057-7.86-4.278-7.985-6.771-0.094-1.894 1.304-3.398 3.941-4.234l0.247-0.076-0.504-1.876 0.279 0.931-0.329-0.915-0.283 0.086c-3.5 1.111-5.428 3.364-5.288 6.18 0.192 3.847 4.197 7.453 9.524 8.574 9.128 1.92 17.062-0.366 20.209-5.833 1.67-2.899 1.94-6.419 0.727-9.416-1.004-2.474-3.453-5.781-9.429-7.488-2.92-0.835-5.969-1.179-8.931-1.179z"></path>
            <path d="M415.697 10.234c-0.19 0.119-19.229 11.844-23.486 14.276-4.756 2.717-15.788 5.299-25.435 2.544-5.976-1.707-8.425-5.015-9.429-7.489-1.214-2.997-0.943-6.518 0.728-9.416 2.405-4.181 7.613-6.503 14.014-6.503 1.967 0 4.046 0.219 6.193 0.671 1.282 0.268 2.501 0.682 3.628 1.227 3.808 1.846 6.123 5.004 5.893 8.047-0.012 0.174-0.041 0.369-0.079 0.571-0.526-0.395-1.149-0.693-1.862-0.873 0.067-2.169-1.83-4.56-4.798-5.998-0.983-0.477-2.054-0.837-3.182-1.075-8.293-1.743-15.406 0.177-18.126 4.901-1.373 2.385-1.602 5.271-0.61 7.718 0.841 2.074 2.939 4.859 8.162 6.351 9.108 2.604 19.482 0.184 23.939-2.362 4.232-2.418 23.243-14.125 23.433-14.244 0.454-0.28 1.053-0.138 1.336 0.317 0.28 0.456 0.139 1.055-0.318 1.336z"></path>
            <path d="M360.277 10.234c-0.192 0.119-19.23 11.844-23.488 14.276-4.756 2.717-15.788 5.299-25.435 2.544-5.975-1.707-8.425-5.015-9.428-7.489-1.214-2.997-0.943-6.518 0.727-9.416 2.406-4.181 7.614-6.503 14.016-6.503 1.967 0 4.046 0.219 6.191 0.671 1.282 0.268 2.502 0.682 3.628 1.227 3.81 1.846 6.123 5.004 5.894 8.047-0.014 0.174-0.041 0.369-0.079 0.571-0.526-0.395-1.15-0.693-1.864-0.873 0.067-2.169-1.83-4.56-4.798-5.998-0.981-0.477-2.053-0.837-3.18-1.075-8.293-1.743-15.407 0.177-18.126 4.901-1.374 2.385-1.603 5.271-0.611 7.718 0.841 2.074 2.939 4.859 8.162 6.351 9.109 2.604 19.483 0.184 23.941-2.362 4.23-2.418 23.241-14.125 23.433-14.244 0.453-0.28 1.051-0.138 1.335 0.317 0.28 0.456 0.14 1.055-0.317 1.336z"></path>
            <path d="M431.107 19.175l3.581-3.581-3.581-3.581-3.582 3.581 3.582 3.581z"></path>
            <path d="M437.438 19.175l3.581-3.581-3.581-3.581-3.582 3.581 3.582 3.581z"></path>
            <path d="M226.664 0.925l-12.989 12.989c-0.928 0.928-0.928 2.433 0 3.361l12.989 12.988c0.928 0.928 2.432 0.928 3.36 0l12.989-12.989c0.928-0.928 0.928-2.433 0-3.361l-12.989-12.989c-0.928-0.928-2.432-0.928-3.36 0z"></path>
        </symbol>
    <symbol id="icon-Frame-1" viewBox="0 0 32 32">
        <path d="M19.059 11.376l0.020 0.037v17.172h-5.133v-17.172l0.020-0.037 2.546-4.648 2.546 4.648zM14.273 11.496v16.762h4.48v-16.762l-2.24-4.089-2.24 4.089z"></path>
        <path d="M16.676 3.578h-0.326v3.489h0.326v-3.489z"></path>
        <path d="M17.183 4.79v0.326h-1.341v-0.326h1.341z"></path>
        <path d="M17.020 13.841c0-0.802-0.173-1.595-0.508-2.331-0.334 0.736-0.508 1.529-0.508 2.331v5.46h1.015v-5.46zM17.346 19.628h-1.668v-5.786c0-0.936 0.223-1.86 0.651-2.703l0.038-0.075 0.146-0.286 0.183 0.36c0.428 0.843 0.65 1.768 0.65 2.704v5.786z"></path>
        <path d="M17.020 26.758c0-0.802-0.173-1.595-0.508-2.331-0.334 0.736-0.508 1.529-0.508 2.331v1.501h1.015v-1.501zM17.346 28.585h-1.668v-1.827c0-0.936 0.223-1.86 0.651-2.703l0.183-0.362 0.183 0.362c0.428 0.843 0.65 1.767 0.65 2.703v1.827z"></path>
        <path d="M17.020 21.436c-0-0.252-0.218-0.471-0.507-0.471s-0.508 0.219-0.508 0.471v1.092c0 0.252 0.219 0.471 0.508 0.471s0.507-0.22 0.507-0.471v-1.092zM17.346 22.528c-0 0.449-0.382 0.797-0.833 0.797s-0.834-0.349-0.834-0.797v-1.092c0-0.449 0.382-0.797 0.834-0.797s0.833 0.349 0.833 0.797v1.092z"></path>
        <path d="M21.456 22.549c-0-0.252-0.219-0.471-0.508-0.471s-0.507 0.219-0.507 0.471v0.786h1.015v-0.786zM21.782 23.661h-1.668v-1.113c0-0.449 0.382-0.797 0.833-0.797s0.834 0.348 0.834 0.797v1.113z"></path>
        <path d="M23.211 22.588c0-2.087-1.792-3.794-4.022-3.794h-0.11v9.465h1.503c1.461-0 2.629-1.118 2.629-2.478v-3.192zM23.538 25.78c0 1.557-1.332 2.804-2.956 2.804h-1.829v-10.117h0.437c2.393 0 4.348 1.836 4.348 4.121v3.192z"></path>
        <path d="M12.576 22.549c0-0.252-0.218-0.471-0.507-0.471s-0.508 0.219-0.508 0.471v0.786h1.015v-0.786zM12.902 23.661h-1.668v-1.113c0-0.449 0.382-0.797 0.834-0.797s0.833 0.349 0.833 0.797v1.113z"></path>
        <path d="M14.264 18.468v10.117h-1.829c-1.624 0-2.956-1.247-2.956-2.804v-3.192c0-2.284 1.956-4.121 4.348-4.121h0.437zM9.805 25.78c0 1.36 1.169 2.478 2.629 2.478h1.503v-9.465h-0.111c-2.229 0-4.022 1.707-4.022 3.794v3.192z"></path>
        <path d="M24.474 13.759c0.027-0.086 0.119-0.133 0.205-0.106s0.133 0.119 0.106 0.205l-1.748 5.459c-0.095 0.297-0.25 0.569-0.453 0.803-0.059 0.068-0.162 0.075-0.23 0.016s-0.075-0.162-0.016-0.23c0.175-0.202 0.308-0.435 0.389-0.689l1.748-5.459z"></path>
        <path d="M23.881 17.664c0.668-0.572 1.72-1.075 3.246-0.824 0.053 0.009 0.098 0.043 0.121 0.091s0.021 0.105-0.006 0.151l-0.142-0.081 0.142 0.082h-0l-0.001 0.003c-0.001 0.002-0.002 0.004-0.004 0.006-0.003 0.005-0.008 0.013-0.013 0.022-0.012 0.019-0.029 0.046-0.051 0.080-0.045 0.068-0.112 0.164-0.201 0.277-0.177 0.226-0.44 0.522-0.79 0.803-0.7 0.563-1.752 1.072-3.128 0.825-0.049-0.009-0.092-0.040-0.115-0.084s-0.025-0.097-0.005-0.143v-0l0.001-0.003c0.001-0.002 0.002-0.004 0.003-0.007 0.003-0.005 0.006-0.013 0.011-0.023 0.009-0.019 0.023-0.047 0.042-0.082 0.037-0.069 0.093-0.166 0.17-0.281 0.153-0.229 0.389-0.528 0.721-0.812zM26.821 17.127c-1.28-0.141-2.159 0.299-2.727 0.785-0.304 0.26-0.521 0.536-0.662 0.746-0.038 0.056-0.070 0.108-0.096 0.152 1.147 0.136 2.030-0.3 2.641-0.791 0.326-0.262 0.573-0.539 0.738-0.75 0.041-0.052 0.076-0.1 0.107-0.142z"></path>
        <path d="M25.255 12.71c0.628-0.611 1.644-1.177 3.183-1.020 0.053 0.005 0.1 0.036 0.126 0.083 0.019 0.035 0.025 0.075 0.017 0.113l-0.013 0.037v0l-0.001 0.002c-0.001 0.002-0.002 0.004-0.003 0.006-0.003 0.005-0.007 0.013-0.012 0.023-0.010 0.020-0.025 0.048-0.046 0.083-0.040 0.071-0.101 0.171-0.181 0.289-0.161 0.236-0.404 0.548-0.734 0.85-0.661 0.605-1.676 1.176-3.066 1.014-0.050-0.006-0.094-0.034-0.12-0.077s-0.031-0.095-0.014-0.142v-0l0-0.001c0-0.001 0-0.001 0.001-0.002s0.002-0.004 0.003-0.007 0.005-0.014 0.009-0.023c0.008-0.020 0.020-0.049 0.037-0.084 0.032-0.071 0.082-0.172 0.151-0.291 0.137-0.238 0.352-0.551 0.664-0.855zM28.152 11.994c-1.288-0.064-2.136 0.429-2.67 0.949-0.286 0.278-0.483 0.566-0.609 0.784-0.034 0.059-0.062 0.112-0.086 0.159 1.155 0.067 2.007-0.422 2.583-0.95 0.307-0.281 0.534-0.572 0.685-0.793 0.037-0.055 0.069-0.105 0.097-0.149z"></path>
        <path d="M20.831 13.347h0l0.001 0c0 0 0.001 0 0.002 0.001s0.004 0.001 0.007 0.002 0.014 0.005 0.025 0.009c0.021 0.008 0.052 0.020 0.091 0.036 0.078 0.032 0.188 0.080 0.319 0.145 0.262 0.131 0.611 0.332 0.958 0.616 0.694 0.569 1.391 1.479 1.341 2.813-0.002 0.049-0.025 0.094-0.064 0.124-0.029 0.022-0.065 0.034-0.101 0.033l-0.036-0.004h-0l-0.001-0c-0.001-0-0.001-0-0.002-0.001s-0.004-0.001-0.007-0.002-0.014-0.004-0.025-0.007c-0.022-0.006-0.052-0.015-0.091-0.027-0.078-0.024-0.187-0.062-0.318-0.116-0.261-0.108-0.609-0.282-0.956-0.549-0.698-0.537-1.389-1.449-1.359-2.923l0.005-0.038c0.010-0.037 0.032-0.070 0.064-0.092 0.043-0.030 0.097-0.037 0.146-0.021zM20.944 13.744c0.046 1.21 0.635 1.961 1.23 2.419 0.319 0.245 0.64 0.406 0.882 0.506 0.073 0.030 0.139 0.054 0.195 0.073-0.032-1.082-0.616-1.837-1.223-2.334-0.323-0.265-0.65-0.454-0.897-0.577-0.069-0.035-0.132-0.064-0.187-0.088z"></path>
        <path d="M7.392 20.859c0.074-0.028 0.155 0.001 0.196 0.065l0.015 0.029 2.051 5.36c0.084 0.218 0.205 0.419 0.358 0.594l0.068 0.074 0.020 0.026c0.041 0.064 0.032 0.15-0.025 0.205-0.065 0.062-0.168 0.061-0.231-0.004-0.215-0.223-0.384-0.487-0.496-0.777l-2.052-5.36-0.008-0.032c-0.012-0.075 0.029-0.151 0.103-0.179z"></path>
        <path d="M5.154 24.168c1.498-0.329 2.57 0.119 3.265 0.655 0.345 0.266 0.596 0.553 0.761 0.773 0.082 0.11 0.144 0.204 0.185 0.272 0.020 0.034 0.036 0.060 0.047 0.079 0.005 0.009 0.009 0.017 0.012 0.022 0.001 0.003 0.003 0.005 0.003 0.007l0.001 0.003v0l0.013 0.035c0.009 0.036 0.005 0.074-0.010 0.108-0.021 0.045-0.062 0.079-0.111 0.090-1.35 0.318-2.422-0.135-3.148-0.662-0.363-0.263-0.642-0.544-0.83-0.761-0.094-0.108-0.166-0.2-0.215-0.266-0.024-0.033-0.043-0.059-0.056-0.078-0.006-0.009-0.011-0.017-0.015-0.022-0.002-0.002-0.003-0.005-0.004-0.006s-0.001-0.001-0.001-0.002l-0-0.001-0-0c-0.029-0.045-0.034-0.101-0.014-0.151s0.064-0.086 0.116-0.097zM8.22 25.081c-0.591-0.456-1.487-0.849-2.746-0.642 0.033 0.041 0.071 0.087 0.114 0.137 0.176 0.202 0.437 0.466 0.775 0.711 0.634 0.459 1.533 0.848 2.66 0.653-0.029-0.044-0.064-0.093-0.104-0.148-0.152-0.202-0.382-0.466-0.699-0.711z"></path>
        <path d="M3.553 19.094c1.517-0.237 2.557 0.276 3.215 0.853 0.327 0.287 0.558 0.589 0.708 0.819 0.075 0.115 0.13 0.213 0.166 0.282 0.018 0.035 0.032 0.063 0.041 0.082 0.005 0.010 0.008 0.017 0.011 0.023 0.001 0.003 0.002 0.005 0.003 0.007l0.001 0.003v0.001c0.020 0.046 0.017 0.098-0.007 0.142s-0.066 0.074-0.116 0.083c-1.369 0.235-2.408-0.283-3.098-0.853-0.345-0.284-0.604-0.583-0.777-0.81-0.087-0.114-0.152-0.21-0.196-0.279-0.022-0.034-0.039-0.062-0.050-0.081-0.006-0.009-0.010-0.017-0.013-0.022-0.002-0.003-0.003-0.005-0.004-0.006l-0.001-0.003c-0-0-0-0 0.142-0.080l-0.143 0.080c-0.026-0.047-0.027-0.103-0.004-0.151s0.069-0.082 0.121-0.090zM6.553 20.192c-0.559-0.491-1.427-0.939-2.698-0.809 0.030 0.043 0.065 0.092 0.105 0.144 0.162 0.213 0.405 0.491 0.725 0.756 0.602 0.497 1.473 0.94 2.611 0.814-0.026-0.045-0.057-0.097-0.094-0.154-0.137-0.211-0.35-0.488-0.65-0.752z"></path>
    </symbol>
    <symbol id="icon-Frame-3" viewBox="0 0 32 32">
        <path d="M17.51 12.422c-0.105 0-0.189 0.085-0.189 0.189v1.431c0 0.104 0.085 0.189 0.189 0.189h2.759c0.105 0 0.189-0.085 0.189-0.189v-1.431c0-0.104-0.085-0.189-0.189-0.189h-2.759zM20.080 13.853h-2.381v-1.052h2.381v1.052z"></path>
        <path d="M18.277 15.655c2.513 0 4.55 2.037 4.55 4.55s-2.037 4.55-4.55 4.55c-2.513 0-4.55-2.037-4.55-4.55s2.037-4.55 4.55-4.55zM18.277 15.277c-2.722 0-4.929 2.207-4.929 4.929s2.207 4.929 4.929 4.929c2.722-0 4.929-2.207 4.929-4.929s-2.207-4.929-4.929-4.929z"></path>
        <path d="M18.277 17.245c1.635 0 2.96 1.325 2.96 2.96s-1.325 2.96-2.96 2.96c-1.635-0-2.96-1.325-2.96-2.96s1.325-2.96 2.96-2.96zM18.277 16.867c-1.844 0-3.339 1.495-3.339 3.339s1.495 3.339 3.339 3.339c1.844 0 3.339-1.495 3.339-3.339s-1.495-3.339-3.339-3.339z"></path>
        <path d="M29.028 16.391v-1.252c0-0.519-0.421-0.94-0.941-0.94h-18.63c-0.52 0-0.941 0.421-0.941 0.94v1.252c-0 0.104-0.085 0.189-0.189 0.189s-0.189-0.085-0.189-0.189v-1.252c0-0.728 0.591-1.319 1.319-1.319h18.63c0.729 0 1.319 0.591 1.319 1.319v1.252c-0 0.104-0.085 0.189-0.189 0.189s-0.189-0.085-0.189-0.189z"></path>
        <path d="M8.138 24.973v-8.582c0-0.105 0.085-0.189 0.189-0.189l7.121 0.004c0.086 0.018 0.151 0.094 0.151 0.185s-0.065 0.168-0.151 0.185l-0.038 0.004h-6.894v8.393c0 0.519 0.421 0.94 0.941 0.94h18.63c0.52 0 0.941-0.421 0.941-0.94v-8.393h-7.839c-0.104-0-0.189-0.085-0.189-0.189s0.085-0.189 0.189-0.189h8.028c0.105 0 0.189 0.085 0.189 0.189v8.582c-0 0.728-0.591 1.319-1.319 1.319h-18.63c-0.728-0-1.319-0.591-1.319-1.319z"></path>
        <path d="M27.977 15.068c-0-0.060-0.050-0.111-0.111-0.111h-2.431c-0.060 0-0.111 0.050-0.111 0.111s0.050 0.111 0.111 0.111h2.431c0.061 0 0.111-0.050 0.111-0.111zM28.356 15.068c0 0.27-0.22 0.489-0.489 0.489h-2.431c-0.269-0-0.489-0.219-0.489-0.489s0.22-0.489 0.489-0.489h2.431c0.269 0 0.489 0.22 0.489 0.489z"></path>
        <path d="M10.421 24.581c0-0.111-0.091-0.201-0.201-0.201h-0.48c-0.109 0-0.2 0.091-0.2 0.201s0.091 0.201 0.2 0.201h0.48c0.11 0 0.201-0.091 0.201-0.201zM10.8 24.581c-0 0.319-0.26 0.579-0.579 0.579h-0.48c-0.319-0-0.579-0.26-0.579-0.579s0.26-0.58 0.579-0.58h0.48c0.319 0 0.579 0.261 0.579 0.58z"></path>
        <path d="M22.687 8.458c0-0.034-0.028-0.062-0.062-0.062h-7.472c-0.034 0-0.062 0.028-0.062 0.062v3.903c0 0.033 0.027 0.061 0.062 0.061h7.472c0.034 0 0.062-0.028 0.062-0.061v-3.903zM23.065 12.361c0 0.243-0.197 0.44-0.44 0.44h-7.472c-0.243 0-0.44-0.197-0.44-0.44v-3.903c0-0.243 0.197-0.44 0.44-0.44h7.472c0.243 0 0.44 0.197 0.44 0.44v3.903z"></path>
        <path d="M21.247 9.529c0-0.095-0.077-0.172-0.172-0.172h-4.37c-0.095 0-0.172 0.077-0.172 0.172v1.761c0 0.095 0.077 0.172 0.172 0.172h4.37c0.095-0 0.172-0.077 0.172-0.172v-1.761zM21.625 11.29c-0 0.304-0.247 0.551-0.551 0.551h-4.37c-0.304 0-0.551-0.247-0.551-0.551v-1.761c0-0.304 0.247-0.551 0.551-0.551h4.37c0.304 0 0.551 0.246 0.551 0.551v1.761z"></path>
        <path d="M27.015 8.124c0.074-0.074 0.194-0.074 0.267 0s0.074 0.194 0 0.268l-4.947 4.947c-0.267 0.267-0.581 0.475-0.923 0.617-0.096 0.040-0.207-0.006-0.247-0.102s0.006-0.207 0.102-0.247c0.296-0.123 0.569-0.303 0.8-0.535l4.947-4.947z"></path>
        <path d="M24.143 12.026c1.013-0.252 2.383-0.222 3.802 0.887 0.048 0.038 0.075 0.096 0.073 0.157s-0.034 0.117-0.085 0.151h-0l-0.003 0.002c-0.002 0.001-0.004 0.003-0.007 0.005-0.006 0.004-0.015 0.010-0.027 0.017-0.023 0.014-0.056 0.034-0.098 0.058-0.085 0.049-0.209 0.116-0.365 0.189-0.311 0.147-0.752 0.323-1.272 0.435-1.042 0.226-2.414 0.201-3.682-0.821-0.044-0.036-0.070-0.090-0.071-0.147s0.026-0.111 0.070-0.147l0-0v-0c0-0 0.001-0 0.001-0s0.001-0.001 0.002-0.002 0.004-0.003 0.007-0.005 0.014-0.011 0.024-0.019c0.021-0.016 0.051-0.038 0.090-0.065 0.078-0.054 0.191-0.128 0.335-0.21 0.288-0.163 0.702-0.358 1.205-0.483zM27.483 13.042c-1.228-0.858-2.383-0.864-3.249-0.649-0.462 0.115-0.844 0.295-1.11 0.445-0.079 0.045-0.148 0.088-0.205 0.125 1.094 0.778 2.249 0.791 3.162 0.593 0.485-0.105 0.898-0.27 1.19-0.408 0.081-0.038 0.152-0.075 0.212-0.107z"></path>
        <path d="M28.416 7.42c0.995-0.317 2.363-0.374 3.851 0.641 0.050 0.034 0.081 0.091 0.083 0.152 0.001 0.053-0.020 0.104-0.058 0.141l-0.018 0.015-0.001 0.001c-0 0-0.001 0.001-0.002 0.002s-0.004 0.003-0.007 0.005-0.014 0.010-0.025 0.018c-0.022 0.015-0.054 0.038-0.095 0.065-0.082 0.054-0.201 0.129-0.352 0.213-0.301 0.167-0.729 0.37-1.241 0.516-1.025 0.292-2.396 0.356-3.727-0.583-0.047-0.033-0.076-0.085-0.080-0.142s0.018-0.112 0.060-0.151l0.128 0.139c-0.128-0.138-0.129-0.139-0.128-0.139h0l0.003-0.002c0.002-0.001 0.004-0.003 0.006-0.006 0.005-0.005 0.013-0.011 0.023-0.020 0.020-0.017 0.048-0.041 0.085-0.071 0.074-0.059 0.183-0.14 0.321-0.231 0.277-0.181 0.677-0.402 1.172-0.56zM31.814 8.22c-1.281-0.777-2.434-0.71-3.283-0.439-0.454 0.145-0.823 0.348-1.079 0.516-0.076 0.050-0.142 0.097-0.197 0.137 1.141 0.706 2.296 0.645 3.193 0.389 0.477-0.136 0.879-0.326 1.161-0.483 0.078-0.043 0.146-0.084 0.205-0.12z"></path>
        <path d="M23.367 5.63c0.061-0.007 0.121 0.016 0.162 0.061l-0.141 0.127c0.13-0.117 0.14-0.126 0.141-0.127l0 0 0.001 0c0 0 0.001 0.001 0.002 0.002s0.003 0.004 0.006 0.007 0.012 0.014 0.020 0.024c0.017 0.020 0.042 0.050 0.073 0.088 0.061 0.077 0.146 0.189 0.242 0.332 0.193 0.285 0.433 0.694 0.623 1.191 0.381 0.995 0.565 2.355-0.254 3.763-0.029 0.049-0.078 0.083-0.135 0.092s-0.114-0.008-0.156-0.047l-0-0h-0l-0.003-0.002c-0.002-0.001-0.004-0.003-0.006-0.006-0.005-0.005-0.013-0.012-0.022-0.021-0.019-0.018-0.045-0.044-0.078-0.079-0.065-0.069-0.156-0.17-0.258-0.3-0.205-0.26-0.46-0.639-0.661-1.117-0.403-0.963-0.58-2.322 0.3-3.893l0.012-0.019c0.031-0.043 0.079-0.071 0.132-0.077zM23.421 6.163c-0.662 1.344-0.493 2.487-0.148 3.309 0.184 0.44 0.419 0.789 0.608 1.029 0.056 0.072 0.109 0.133 0.154 0.184 0.603-1.199 0.441-2.343 0.107-3.214-0.177-0.463-0.403-0.847-0.583-1.114-0.050-0.074-0.097-0.139-0.138-0.194z"></path>
        <path d="M3.742 19.124c0.047-0.047 0.12-0.053 0.174-0.017l0.022 0.017 3.698 3.696c0.133 0.12 0.282 0.219 0.443 0.295l0.081 0.036 0.025 0.013c0.053 0.036 0.076 0.106 0.050 0.167s-0.091 0.095-0.154 0.083l-0.027-0.008-0.093-0.041c-0.215-0.102-0.413-0.24-0.585-0.411v-0l-3.633-3.633-0.018-0.022c-0.035-0.054-0.030-0.127 0.018-0.174z"></path>
        <path d="M3.256 22.642c1.042-0.814 2.048-0.836 2.792-0.651 0.37 0.092 0.674 0.235 0.885 0.355 0.106 0.060 0.189 0.114 0.246 0.154 0.029 0.020 0.051 0.036 0.066 0.048 0.008 0.006 0.013 0.011 0.018 0.014 0.002 0.002 0.004 0.003 0.005 0.004s0.001 0.001 0.002 0.001l0.001 0.001 0.022 0.022c0.019 0.024 0.030 0.054 0.030 0.086-0 0.042-0.019 0.081-0.052 0.107-0.931 0.751-1.938 0.769-2.703 0.603-0.382-0.083-0.706-0.212-0.934-0.32-0.114-0.054-0.205-0.103-0.268-0.139-0.031-0.018-0.055-0.032-0.072-0.043-0.008-0.005-0.015-0.009-0.019-0.012-0.002-0.001-0.004-0.003-0.005-0.003s-0.001-0.001-0.002-0.001l-0.001-0v-0h-0c-0.037-0.024-0.060-0.065-0.062-0.11s0.018-0.087 0.053-0.115zM5.981 22.259c-0.636-0.158-1.485-0.154-2.388 0.477 0.045 0.024 0.098 0.051 0.158 0.079 0.214 0.102 0.518 0.222 0.874 0.299 0.67 0.145 1.52 0.136 2.323-0.437-0.042-0.027-0.093-0.059-0.152-0.092-0.195-0.111-0.476-0.243-0.816-0.327z"></path>
        <path d="M0.082 19.078c1.092-0.745 2.097-0.703 2.828-0.471 0.363 0.116 0.657 0.278 0.86 0.411 0.102 0.067 0.181 0.126 0.236 0.17 0.027 0.022 0.048 0.040 0.063 0.052 0.007 0.006 0.013 0.011 0.017 0.015 0.002 0.002 0.004 0.003 0.005 0.004s0.001 0.001 0.002 0.001l0.001 0.001 0.020 0.023c0.017 0.025 0.026 0.056 0.024 0.087-0.003 0.042-0.024 0.080-0.058 0.104-0.977 0.689-1.984 0.643-2.737 0.428-0.376-0.107-0.691-0.257-0.911-0.379-0.11-0.061-0.198-0.116-0.258-0.156-0.030-0.020-0.053-0.036-0.069-0.048-0.008-0.006-0.014-0.010-0.019-0.013-0.002-0.002-0.004-0.003-0.005-0.004s-0.001-0.001-0.002-0.001l-0-0.001h-0c-0.036-0.027-0.056-0.069-0.055-0.114s0.024-0.086 0.060-0.111zM2.826 18.871c-0.625-0.199-1.472-0.249-2.414 0.323 0.043 0.027 0.094 0.057 0.152 0.089 0.207 0.115 0.503 0.255 0.853 0.355 0.66 0.188 1.508 0.233 2.347-0.287-0.040-0.030-0.089-0.065-0.145-0.102-0.188-0.123-0.459-0.273-0.793-0.379z"></path>
        <path d="M6.618 17.293c0.044 0.005 0.083 0.031 0.105 0.070 0.646 1.154 0.516 2.151 0.22 2.858-0.147 0.351-0.335 0.63-0.485 0.821-0.075 0.096-0.142 0.17-0.19 0.22-0.024 0.025-0.043 0.044-0.057 0.058-0.007 0.007-0.012 0.012-0.016 0.016-0.002 0.002-0.003 0.003-0.004 0.004s-0.001 0.001-0.002 0.001l-0 0h-0v0c-0.031 0.028-0.073 0.040-0.114 0.034s-0.077-0.031-0.098-0.067c-0.601-1.034-0.466-2.032-0.186-2.763 0.14-0.365 0.316-0.666 0.458-0.875 0.071-0.105 0.133-0.187 0.178-0.243 0.022-0.028 0.041-0.050 0.053-0.065 0.006-0.007 0.011-0.013 0.015-0.017 0.002-0.002 0.003-0.004 0.004-0.005s0.001-0.001 0.001-0.002l0-0v-0c0-0 0.001 0.001 0.099 0.089l-0.099-0.089c0.030-0.033 0.074-0.050 0.118-0.045zM6.579 17.681c-0.030 0.041-0.065 0.089-0.102 0.144-0.133 0.197-0.298 0.478-0.428 0.818-0.245 0.641-0.365 1.482 0.079 2.363 0.034-0.038 0.073-0.083 0.115-0.136 0.139-0.176 0.312-0.434 0.447-0.757 0.253-0.605 0.377-1.445-0.11-2.433z"></path>
    </symbol>
    <symbol id="icon-Frame-6" viewBox="0 0 32 32">
        <path d="M14.78 5.601l-1.161 7.408-0.208-0.063c-0.551-0.165-1.154-0.148-1.87 0.274-0.21 0.149-0.406 0.236-0.593 0.247-0.2 0.012-0.364-0.061-0.496-0.182-0.125-0.115-0.221-0.272-0.301-0.435-0.081-0.164-0.152-0.352-0.223-0.534-0.145-0.378-0.284-0.736-0.488-0.981-0.099-0.118-0.207-0.202-0.332-0.248-0.122-0.045-0.274-0.058-0.47-0.015-0.19 0.060-0.417 0.132-0.647 0.23l-0.315 0.135 1.057-6.747 6.048 0.909zM8.155 10.834c0.138-0.049 0.267-0.090 0.377-0.124l0.007-0.002 0.008-0.002c0.26-0.059 0.49-0.047 0.693 0.027 0.202 0.074 0.362 0.205 0.492 0.36 0.253 0.303 0.413 0.728 0.552 1.088 0.072 0.186 0.138 0.357 0.209 0.503 0.072 0.148 0.143 0.255 0.217 0.322 0.068 0.062 0.134 0.088 0.216 0.083 0.091-0.006 0.222-0.051 0.408-0.185l0.007-0.005 0.008-0.004c0.724-0.427 1.37-0.495 1.964-0.366l1.036-6.61-5.297-0.797-0.895 5.712z"></path>
        <path d="M8.547 10.706c0.26-0.059 0.49-0.047 0.693 0.027s0.362 0.205 0.492 0.36c0.253 0.303 0.413 0.728 0.552 1.088 0.072 0.186 0.138 0.357 0.209 0.503 0.072 0.148 0.143 0.255 0.216 0.322 0.068 0.062 0.134 0.088 0.216 0.083 0.091-0.006 0.222-0.051 0.408-0.184l0.007-0.005 0.008-0.004c0.81-0.478 1.523-0.508 2.174-0.313l0.158 0.047-0.248 1.584c-0.229 1.463-1.498 2.509-2.95 2.542l-1.081 6.902c0.506 0.101 0.951 0.23 1.279 0.366 0.182 0.075 0.339 0.158 0.45 0.245 0.098 0.077 0.226 0.209 0.198 0.386-0.015 0.098-0.074 0.169-0.135 0.217s-0.134 0.081-0.21 0.106c-0.153 0.051-0.354 0.082-0.583 0.097-0.404 0.026-0.928 0.004-1.498-0.069l-0.247-0.034c-0.666-0.1-1.266-0.25-1.697-0.414-0.214-0.081-0.397-0.17-0.528-0.264-0.065-0.047-0.125-0.101-0.169-0.164-0.044-0.064-0.079-0.15-0.063-0.248 0.027-0.176 0.189-0.264 0.305-0.308 0.133-0.051 0.307-0.083 0.504-0.102 0.355-0.033 0.82-0.024 1.334 0.028l1.082-6.902c-1.375-0.459-2.264-1.83-2.036-3.293l0.362-2.307 0.097-0.041c0.252-0.107 0.499-0.185 0.689-0.245l0.007-0.002 0.008-0.002zM9.108 11.089c-0.122-0.045-0.273-0.059-0.469-0.015-0.164 0.052-0.355 0.113-0.552 0.192l-0.329 2.096c-0.207 1.321 0.635 2.566 1.924 2.919l0.164 0.045-0.027 0.168-1.163 7.424-0.182-0.022c-0.57-0.067-1.074-0.080-1.436-0.047-0.182 0.017-0.318 0.045-0.404 0.078-0.015 0.006-0.027 0.012-0.037 0.017 0.012 0.012 0.029 0.026 0.051 0.042 0.091 0.066 0.239 0.141 0.441 0.217 0.4 0.152 0.972 0.296 1.619 0.393s1.237 0.128 1.665 0.101c0.215-0.014 0.38-0.042 0.487-0.078 0.026-0.009 0.047-0.018 0.063-0.025-0.008-0.007-0.017-0.016-0.028-0.026-0.072-0.057-0.193-0.123-0.361-0.193-0.334-0.139-0.82-0.275-1.384-0.378l-0.182-0.033 1.189-7.592 0.168 0.005c1.339 0.042 2.524-0.899 2.732-2.221l0.196-1.252c-0.507-0.116-1.062-0.066-1.709 0.315-0.211 0.15-0.407 0.237-0.595 0.248-0.2 0.012-0.364-0.061-0.495-0.182-0.125-0.115-0.221-0.272-0.301-0.435-0.080-0.164-0.153-0.351-0.223-0.534-0.145-0.378-0.284-0.737-0.488-0.981-0.099-0.118-0.207-0.201-0.332-0.247z"></path>
        <path d="M21.642 14.5l-0.22 0.012c-0.576 0.031-1.134 0.252-1.657 0.888-0.145 0.212-0.299 0.36-0.471 0.435-0.184 0.079-0.364 0.065-0.528-0.002-0.157-0.065-0.302-0.18-0.435-0.306-0.133-0.127-0.267-0.278-0.397-0.426-0.269-0.305-0.526-0.595-0.805-0.756-0.135-0.078-0.267-0.12-0.4-0.12-0.131-0.001-0.278 0.038-0.447 0.146-0.156 0.119-0.344 0.265-0.524 0.434l-0.247 0.231-1.387-6.688 5.996-1.193 1.523 7.345zM14.573 8.645l1.174 5.664c0.113-0.093 0.219-0.176 0.311-0.246l0.006-0.005 0.007-0.004c0.223-0.144 0.444-0.21 0.66-0.209 0.215 0.001 0.411 0.069 0.587 0.171 0.344 0.198 0.643 0.543 0.9 0.834 0.133 0.15 0.255 0.288 0.374 0.402 0.12 0.114 0.225 0.191 0.318 0.23 0.086 0.036 0.158 0.037 0.232 0.005 0.082-0.036 0.189-0.123 0.316-0.31l0.005-0.007 0.006-0.007c0.528-0.645 1.11-0.929 1.713-1.009l-1.358-6.553-5.251 1.045z"></path>
        <path d="M16.731 13.845c0.215 0.001 0.411 0.069 0.587 0.171 0.344 0.198 0.643 0.542 0.9 0.833 0.133 0.15 0.255 0.288 0.374 0.402 0.12 0.114 0.225 0.191 0.318 0.23 0.086 0.036 0.158 0.037 0.232 0.005 0.082-0.036 0.189-0.123 0.316-0.31l0.005-0.007 0.006-0.007c0.592-0.723 1.251-0.993 1.932-1.030l0.163-0.009 0.325 1.568 0.026 0.141c0.221 1.4-0.59 2.738-1.897 3.245l1.419 6.843c0.511-0.076 0.975-0.107 1.332-0.091 0.197 0.009 0.373 0.033 0.508 0.078 0.118 0.039 0.283 0.119 0.319 0.294 0.020 0.097-0.010 0.184-0.051 0.25s-0.098 0.122-0.161 0.172c-0.125 0.1-0.304 0.197-0.514 0.289-0.37 0.161-0.869 0.318-1.431 0.442l-0.244 0.051c-0.66 0.131-1.276 0.193-1.738 0.186-0.23-0.004-0.433-0.025-0.587-0.069-0.077-0.022-0.153-0.052-0.215-0.096s-0.126-0.113-0.146-0.21c-0.036-0.175 0.085-0.314 0.178-0.395 0.107-0.093 0.26-0.182 0.438-0.266 0.321-0.151 0.759-0.3 1.259-0.425l-1.418-6.843c-1.452 0.036-2.77-0.949-3.071-2.4l-0.474-2.288 0.078-0.073c0.199-0.186 0.403-0.344 0.56-0.464l0.006-0.005 0.007-0.004c0.224-0.144 0.444-0.211 0.66-0.209zM16.729 14.225c-0.13-0.001-0.278 0.038-0.446 0.145-0.134 0.103-0.291 0.225-0.447 0.364l0.431 2.078c0.272 1.311 1.502 2.195 2.837 2.090l0.167-0.013 1.56 7.527-0.181 0.042c-0.558 0.13-1.036 0.288-1.363 0.442-0.165 0.078-0.282 0.15-0.351 0.21-0.012 0.010-0.020 0.019-0.027 0.027 0.016 0.007 0.037 0.015 0.064 0.023 0.109 0.031 0.274 0.051 0.49 0.055 0.429 0.007 1.016-0.051 1.658-0.178l0.237-0.050c0.544-0.121 1.018-0.27 1.361-0.42 0.197-0.086 0.341-0.168 0.429-0.238 0.021-0.017 0.036-0.031 0.048-0.043-0.010-0.004-0.022-0.010-0.038-0.015-0.088-0.029-0.225-0.051-0.407-0.059-0.363-0.017-0.866 0.020-1.432 0.114l-0.18 0.030-0.037-0.179-1.524-7.348 0.162-0.052c1.27-0.413 2.049-1.696 1.777-3.006l-0.258-1.243c-0.518 0.062-1.021 0.297-1.494 0.874-0.145 0.212-0.299 0.36-0.471 0.435-0.184 0.079-0.364 0.065-0.528-0.002-0.157-0.065-0.302-0.18-0.435-0.305-0.133-0.127-0.267-0.278-0.397-0.426-0.269-0.305-0.526-0.596-0.805-0.756-0.135-0.078-0.267-0.12-0.4-0.12z"></path>
        <path d="M26.641 19.547c0.067-0.081 0.186-0.092 0.267-0.025s0.092 0.186 0.025 0.267l-4.551 5.507c-0.245 0.297-0.546 0.539-0.881 0.718-0.093 0.049-0.207 0.014-0.257-0.078s-0.014-0.207 0.078-0.257c0.293-0.156 0.554-0.367 0.767-0.624l0-0 4.551-5.507z"></path>
        <path d="M24.107 23.783c1.012-0.361 2.42-0.474 3.997 0.49 0.053 0.032 0.086 0.088 0.090 0.15s-0.022 0.121-0.071 0.16l-0.119-0.148 0.119 0.148h-0l-0.001 0.001c-0 0-0.001 0.001-0.002 0.002s-0.004 0.003-0.007 0.005-0.014 0.011-0.025 0.019c-0.022 0.017-0.054 0.040-0.095 0.069-0.082 0.058-0.202 0.138-0.354 0.229-0.303 0.181-0.737 0.404-1.258 0.573-1.045 0.337-2.455 0.457-3.866-0.437-0.049-0.031-0.081-0.083-0.087-0.14s0.014-0.115 0.056-0.155l0-0h0c0-0 0-0 0.001-0.001s0.001-0.001 0.002-0.002 0.004-0.003 0.007-0.006 0.013-0.012 0.023-0.021c0.020-0.018 0.048-0.044 0.085-0.075 0.074-0.063 0.182-0.149 0.322-0.247 0.278-0.195 0.682-0.434 1.185-0.613zM27.653 24.452c-1.358-0.736-2.549-0.621-3.418-0.311-0.464 0.165-0.837 0.387-1.095 0.567-0.077 0.054-0.143 0.104-0.198 0.148 1.211 0.67 2.404 0.561 3.323 0.265 0.488-0.157 0.895-0.367 1.181-0.538 0.079-0.047 0.149-0.092 0.208-0.131z"></path>
        <path d="M28.002 18.691c0.986-0.424 2.384-0.626 4.021 0.237 0.055 0.029 0.092 0.083 0.1 0.144s-0.014 0.123-0.060 0.164h-0v0l-0.001 0c-0 0-0.001 0.001-0.002 0.002s-0.004 0.003-0.006 0.006-0.014 0.012-0.024 0.021c-0.021 0.018-0.051 0.043-0.090 0.075-0.078 0.063-0.193 0.151-0.338 0.251-0.291 0.2-0.709 0.45-1.219 0.651-1.020 0.402-2.42 0.611-3.887-0.193-0.051-0.028-0.086-0.077-0.096-0.134s0.007-0.115 0.045-0.158l0-0h0l0-0.001c0-0 0.001-0.001 0.002-0.002s0.003-0.004 0.006-0.006 0.012-0.013 0.021-0.023c0.018-0.019 0.045-0.047 0.080-0.080 0.070-0.067 0.172-0.161 0.305-0.267 0.265-0.212 0.652-0.476 1.143-0.687zM31.585 19.135c-1.404-0.649-2.586-0.459-3.432-0.095-0.452 0.194-0.81 0.438-1.055 0.634-0.073 0.059-0.136 0.113-0.188 0.16 1.253 0.593 2.437 0.409 3.334 0.055 0.477-0.188 0.869-0.422 1.143-0.61 0.076-0.052 0.142-0.101 0.199-0.144z"></path>
        <path d="M22.616 17.423c0.059-0.013 0.121 0.003 0.166 0.043l-0.125 0.143 0.126-0.142 0.003 0.003c0.002 0.001 0.004 0.003 0.007 0.006 0.006 0.005 0.013 0.012 0.023 0.022 0.020 0.019 0.049 0.046 0.084 0.082 0.071 0.071 0.17 0.175 0.285 0.308 0.229 0.266 0.52 0.653 0.769 1.133 0.499 0.962 0.835 2.313 0.146 3.819-0.024 0.051-0.069 0.090-0.124 0.104s-0.113 0.004-0.159-0.029l0.111-0.154-0.111 0.154-0-0-0.001-0c-0-0-0.001-0.001-0.002-0.002s-0.004-0.003-0.007-0.005-0.014-0.011-0.025-0.019c-0.021-0.016-0.051-0.040-0.089-0.071-0.075-0.062-0.178-0.154-0.298-0.274-0.239-0.24-0.542-0.595-0.799-1.056-0.518-0.927-0.848-2.278-0.112-3.954l0.010-0.020c0.027-0.045 0.071-0.078 0.123-0.089zM22.725 17.944c-0.539 1.428-0.242 2.563 0.202 3.357 0.237 0.424 0.516 0.752 0.737 0.973 0.069 0.070 0.133 0.128 0.187 0.176 0.495-1.274 0.204-2.412-0.234-3.256-0.233-0.448-0.505-0.811-0.72-1.061-0.063-0.073-0.121-0.136-0.171-0.189z"></path>
        <path d="M6.975 24.059c0.061 0.033 0.084 0.108 0.052 0.169s-0.108 0.084-0.169 0.052l0.118-0.221zM3.304 20.012c0.047-0.038 0.113-0.037 0.158-0.001l0.018 0.018 2.991 3.619c0.14 0.169 0.313 0.308 0.505 0.411l-0.059 0.11-0.059 0.111c-0.22-0.117-0.418-0.277-0.579-0.472h-0l-2.991-3.62-0.014-0.021c-0.027-0.051-0.016-0.117 0.031-0.155z"></path>
        <path d="M2.517 23.135c1.036-0.634 1.962-0.559 2.627-0.322 0.331 0.118 0.596 0.275 0.779 0.403 0.091 0.064 0.163 0.121 0.211 0.162 0.024 0.021 0.043 0.038 0.056 0.049 0.006 0.006 0.011 0.011 0.015 0.014 0.002 0.002 0.003 0.003 0.004 0.004l0.002 0.002c-0.001 0.001-0.008 0.009-0.088 0.090l0.088-0.089c0.027 0.027 0.041 0.065 0.037 0.102s-0.025 0.072-0.058 0.093c-0.928 0.588-1.855 0.509-2.541 0.288-0.343-0.111-0.628-0.258-0.828-0.377-0.1-0.060-0.178-0.112-0.232-0.151-0.027-0.019-0.048-0.034-0.063-0.045-0.007-0.005-0.013-0.010-0.017-0.013-0.002-0.002-0.004-0.003-0.005-0.004s-0.001-0.001-0.001-0.001l-0.001-0.001c-0.032-0.026-0.049-0.065-0.047-0.106s0.025-0.077 0.060-0.099zM5.060 23.048c-0.571-0.203-1.354-0.28-2.246 0.204 0.039 0.026 0.084 0.055 0.136 0.086 0.188 0.112 0.455 0.25 0.776 0.353 0.603 0.195 1.387 0.266 2.183-0.174-0.036-0.029-0.079-0.061-0.13-0.097-0.169-0.118-0.415-0.264-0.719-0.372z"></path>
        <path d="M-0.058 19.622c1.075-0.567 1.994-0.434 2.643-0.156 0.322 0.139 0.577 0.312 0.751 0.452 0.087 0.070 0.154 0.131 0.2 0.175 0.023 0.022 0.041 0.040 0.053 0.053 0.006 0.006 0.010 0.012 0.014 0.015 0.002 0.002 0.003 0.003 0.004 0.004s0.001 0.001 0.001 0.001l0.001 0v0l0.017 0.023c0.014 0.025 0.019 0.053 0.014 0.082-0.006 0.038-0.030 0.070-0.063 0.089-0.964 0.528-1.884 0.391-2.555 0.127-0.335-0.132-0.61-0.297-0.801-0.428-0.096-0.066-0.171-0.123-0.222-0.165-0.026-0.021-0.046-0.038-0.059-0.049-0.007-0.006-0.012-0.011-0.016-0.014-0.002-0.002-0.003-0.003-0.004-0.004s-0.001-0.001-0.001-0.001l-0.001-0v-0c-0.030-0.028-0.045-0.068-0.040-0.108s0.030-0.076 0.066-0.095zM2.486 19.696c-0.556-0.239-1.333-0.364-2.255 0.062 0.037 0.028 0.081 0.060 0.13 0.094 0.18 0.124 0.438 0.278 0.751 0.401 0.589 0.232 1.367 0.354 2.19-0.036-0.034-0.031-0.075-0.066-0.123-0.105-0.161-0.129-0.396-0.289-0.693-0.417z"></path>
        <path d="M6.125 18.633c0.039 0.009 0.071 0.035 0.088 0.072 0.483 1.102 0.267 1.989-0.074 2.599-0.169 0.303-0.369 0.536-0.526 0.694-0.079 0.079-0.147 0.139-0.196 0.18-0.024 0.020-0.044 0.036-0.058 0.047-0.007 0.005-0.012 0.010-0.016 0.012-0.002 0.001-0.004 0.003-0.005 0.003s-0.001 0.001-0.001 0.001l-0.001 0-0.073-0.102 0.073 0.102c-0.030 0.022-0.069 0.029-0.105 0.019s-0.066-0.035-0.082-0.069c-0.453-0.99-0.232-1.878 0.096-2.511 0.164-0.316 0.356-0.57 0.506-0.745 0.075-0.088 0.14-0.156 0.187-0.203 0.023-0.023 0.042-0.041 0.056-0.054 0.007-0.006 0.012-0.011 0.015-0.014 0.002-0.002 0.003-0.003 0.004-0.004l0.002-0.002c0.030-0.026 0.071-0.037 0.11-0.028zM6.053 18.976c-0.033 0.035-0.071 0.076-0.112 0.124-0.141 0.165-0.321 0.403-0.473 0.697-0.288 0.555-0.479 1.302-0.155 2.139 0.035-0.032 0.077-0.069 0.123-0.115 0.145-0.146 0.329-0.361 0.484-0.64 0.292-0.522 0.487-1.268 0.133-2.206z"></path>
    </symbol>
    </defs>
</svg>