<svg width="300" id="group" height="21" viewBox="0 0 300 21" fill="none" xmlns="http://www.w3.org/2000/svg">
  <path d="M130.97 9.09272H17.6752C17.2678 9.09272 16.9375 9.42303 16.9375 9.82968C16.9375 10.2363 17.2678 10.5666 17.6752 10.5666H130.97C131.377 10.5666 131.707 10.2363 131.707 9.82968C131.707 9.42303 131.377 9.09272 130.97 9.09272Z" fill="#1D1D1B"/>
  <path d="M12.5408 2.75704C17.0185 2.75704 21.1961 3.95734 23.3715 5.20072C26.1659 6.79709 38.6594 14.4909 38.7856 14.5688C39.0849 14.754 39.1779 15.1463 38.9935 15.4456C38.8098 15.7449 38.4183 15.8394 38.1174 15.6535C37.992 15.5764 25.5158 7.89308 22.7388 6.30654C19.8144 4.63534 13.0064 3.04653 7.0291 4.75628C3.60205 5.73511 2.22488 7.56277 1.67311 8.92407C1.02232 10.5295 1.17198 12.4237 2.07296 13.9883C3.85829 17.0881 8.52721 18.3511 13.9686 17.2052C17.2626 16.5113 19.1266 14.398 19.209 12.7615C19.2709 11.5189 18.3526 10.5318 16.6232 9.98302L16.4607 9.93314L16.7917 8.70185L16.6088 9.31258L16.825 8.71243L17.0109 8.76912C19.308 9.49852 20.5733 10.977 20.4811 12.825C20.3548 15.3496 17.7267 17.7162 14.2309 18.4516C8.24074 19.7116 3.03441 18.2113 0.969408 14.624C-0.126583 12.7215 -0.304209 10.4116 0.492463 8.44485C1.15081 6.82128 2.75776 4.65122 6.6799 3.53104C8.59599 2.98304 10.5967 2.75704 12.5408 2.75704Z" fill="#1D1D1B"/>
  <path d="M26.6673 6.56579C26.7927 6.64365 39.287 14.3383 42.0807 15.9346C45.2016 17.7177 52.4419 19.4123 58.773 17.6043C62.6944 16.4841 64.3021 14.3133 64.9604 12.6897C65.7571 10.723 65.5795 8.41235 64.4827 6.51062C62.9045 3.76686 59.4865 2.24306 55.2855 2.24306C53.9945 2.24306 52.6301 2.38667 51.222 2.68372C50.3807 2.85983 49.5803 3.13119 48.841 3.48871C46.3414 4.70034 44.8229 6.7729 44.9733 8.76987C44.9816 8.884 45.0005 9.01174 45.0255 9.14477C45.3702 8.88551 45.7798 8.68975 46.2477 8.57183C46.2039 7.14856 47.4488 5.5794 49.3966 4.63534C50.0413 4.32241 50.7443 4.08583 51.4843 3.93013C56.9264 2.78652 61.5946 4.04653 63.3792 7.14629C64.2809 8.71167 64.4298 10.6051 63.7798 12.2113C63.228 13.5726 61.8508 15.4002 58.4238 16.3791C52.4465 18.0881 45.6385 16.5 42.7133 14.8288C39.9363 13.2423 27.4609 5.55899 27.3354 5.48114C27.0376 5.29747 26.6446 5.39044 26.4586 5.689C26.275 5.98832 26.3672 6.38136 26.6673 6.56579Z" fill="#1D1D1B"/>
  <path d="M63.0379 6.56579C63.1633 6.64365 75.6576 14.3383 78.4513 15.9346C81.5722 17.7177 88.8125 19.4123 95.1436 17.6043C99.065 16.4841 100.673 14.3133 101.331 12.6897C102.128 10.723 101.95 8.41235 100.853 6.51062C99.2751 3.76686 95.8571 2.24306 91.6553 2.24306C90.3651 2.24306 89.0008 2.38667 87.5926 2.68372C86.7513 2.85983 85.9509 3.13119 85.2117 3.48871C82.712 4.70034 81.1935 6.7729 81.3439 8.76987C81.3523 8.884 81.3711 9.01174 81.3961 9.14477C81.7408 8.88551 82.1504 8.68975 82.6183 8.57183C82.5745 7.14856 83.8194 5.5794 85.7672 4.63534C86.4119 4.32241 87.1149 4.08583 87.8549 3.93013C93.297 2.78652 97.9652 4.04653 99.7498 7.14629C100.652 8.71167 100.8 10.6051 100.15 12.2113C99.5986 13.5726 98.2214 15.4002 94.7944 16.3791C88.8171 18.0881 82.0091 16.5 79.0839 14.8288C76.3069 13.2423 63.8315 5.55899 63.706 5.48114C63.4082 5.29747 63.0152 5.39044 62.8293 5.689C62.6456 5.98832 62.7378 6.38136 63.0379 6.56579Z" fill="#1D1D1B"/>
  <path d="M18.9048 10.0839L16.5547 7.73388L14.2046 10.0839L16.5547 12.434L18.9048 10.0839Z" fill="#1D1D1B"/>
  <path d="M14.7505 10.0839L12.4004 7.73388L10.0503 10.0839L12.4004 12.434L14.7505 10.0839Z" fill="#1D1D1B"/>
  <path d="M168.498 9.09272H281.793C282.201 9.09272 282.531 9.42303 282.531 9.82968C282.531 10.2363 282.201 10.5666 281.793 10.5666H168.498C168.092 10.5666 167.761 10.2363 167.761 9.82968C167.761 9.42303 168.092 9.09272 168.498 9.09272Z" fill="#1D1D1B"/>
  <path d="M286.928 2.75704C282.451 2.75704 278.273 3.95734 276.098 5.20072C273.303 6.79709 260.81 14.4909 260.683 14.5688C260.384 14.754 260.291 15.1463 260.476 15.4456C260.659 15.7449 261.051 15.8394 261.352 15.6535C261.477 15.5764 273.953 7.89308 276.73 6.30654C279.655 4.63534 286.463 3.04653 292.44 4.75628C295.867 5.73511 297.244 7.56277 297.796 8.92407C298.447 10.5295 298.297 12.4237 297.396 13.9883C295.611 17.0881 290.942 18.3511 285.5 17.2052C282.206 16.5113 280.343 14.398 280.26 12.7615C280.198 11.5189 281.117 10.5318 282.846 9.98302L283.008 9.93314L282.677 8.70185L282.86 9.31258L282.644 8.71243L282.458 8.76912C280.161 9.49852 278.896 10.977 278.988 12.825C279.114 15.3496 281.742 17.7162 285.238 18.4516C291.228 19.7116 296.435 18.2113 298.5 14.624C299.596 12.7215 299.773 10.4116 298.977 8.44485C298.318 6.82128 296.711 4.65122 292.789 3.53104C290.873 2.98304 288.872 2.75704 286.928 2.75704Z" fill="#1D1D1B"/>
  <path d="M272.801 6.56579C272.676 6.64365 260.181 14.3383 257.388 15.9346C254.267 17.7177 247.027 19.4123 240.695 17.6043C236.774 16.4841 235.166 14.3133 234.508 12.6897C233.711 10.723 233.889 8.41235 234.986 6.51062C236.564 3.76686 239.982 2.24306 244.183 2.24306C245.474 2.24306 246.838 2.38667 248.246 2.68372C249.088 2.85983 249.888 3.13119 250.627 3.48871C253.127 4.70034 254.646 6.7729 254.495 8.76987C254.487 8.884 254.468 9.01174 254.443 9.14477C254.098 8.88551 253.689 8.68975 253.221 8.57183C253.265 7.14856 252.02 5.5794 250.072 4.63534C249.427 4.32241 248.724 4.08583 247.984 3.93013C242.542 2.78652 237.874 4.04653 236.089 7.14629C235.188 8.71167 235.038 10.6051 235.689 12.2113C236.24 13.5726 237.618 15.4002 241.045 16.3791C247.022 18.0881 253.83 16.5 256.755 14.8288C259.532 13.2423 272.008 5.55899 272.133 5.48114C272.431 5.29747 272.824 5.39044 273.01 5.689C273.193 5.98832 273.101 6.38136 272.801 6.56579Z" fill="#1D1D1B"/>
  <path d="M236.432 6.56579C236.306 6.64365 223.812 14.3383 221.018 15.9346C217.897 17.7177 210.657 19.4123 204.326 17.6043C200.404 16.4841 198.797 14.3133 198.138 12.6897C197.342 10.723 197.519 8.41235 198.616 6.51062C200.194 3.76686 203.612 2.24306 207.813 2.24306C209.104 2.24306 210.469 2.38667 211.877 2.68372C212.718 2.85983 213.519 3.13119 214.258 3.48871C216.757 4.70034 218.276 6.7729 218.125 8.76987C218.117 8.884 218.098 9.01174 218.073 9.14477C217.729 8.88551 217.319 8.68975 216.851 8.57183C216.895 7.14856 215.65 5.5794 213.702 4.63534C213.057 4.32241 212.355 4.08583 211.615 3.93013C206.172 2.78652 201.504 4.04653 199.72 7.14629C198.818 8.71167 198.668 10.6051 199.319 12.2113C199.871 13.5726 201.248 15.4002 204.675 16.3791C210.652 18.0881 217.46 16.5 220.386 14.8288C223.162 13.2423 235.638 5.55899 235.763 5.48114C236.061 5.29747 236.454 5.39044 236.64 5.689C236.824 5.98832 236.732 6.38136 236.432 6.56579Z" fill="#1D1D1B"/>
  <path d="M282.914 12.4336L285.264 10.0835L282.914 7.73342L280.564 10.0835L282.914 12.4336Z" fill="#1D1D1B"/>
  <path d="M287.068 12.4336L289.418 10.0835L287.068 7.73342L284.718 10.0835L287.068 12.4336Z" fill="#1D1D1B"/>
  <path d="M148.748 0.457037L140.224 8.98082C139.615 9.59004 139.615 10.5772 140.224 11.1864L148.748 19.7102C149.357 20.3194 150.344 20.3194 150.953 19.7102L159.477 11.1864C160.086 10.5772 160.086 9.59004 159.477 8.98082L150.953 0.457037C150.344 -0.152184 149.357 -0.152184 148.748 0.457037Z" fill="#1D1D1B"/>
</svg>