<svg width="41" height="32" viewBox="0 0 41 32" fill="none" xmlns="http://www.w3.org/2000/svg">
  <g clip-path="url(#clip0_8242_9487)">
    <path fill-rule="evenodd" clip-rule="evenodd" d="M30.1046 1.60615C29.8437 1.25962 29.3753 0.637622 29.0267 0.581299C28.1623 2.37838 27.9172 4.53144 28.5748 6.43253C28.8908 7.34629 29.3859 8.11027 29.8932 8.89334C30.0413 9.12177 30.1903 9.35183 30.3363 9.58772C29.8698 11.8677 28.5461 13.9206 27.0759 15.6905C26.6839 16.1627 26.2697 16.6589 25.813 17.0688C26.6068 15.6329 26.8103 13.9984 26.3558 12.4121C25.9968 11.1596 25.1927 10.0483 24.0343 9.4233C22.9942 8.86203 21.6962 8.76937 20.5726 9.11962C19.2848 9.52089 18.2706 10.4346 17.6505 11.6226C17.4499 12.0068 17.3001 12.408 17.1824 12.8244C16.5757 11.5789 15.6998 10.5545 14.3515 10.096C13.2919 9.73555 12.0939 9.77805 11.0854 10.2756C10.1412 10.7525 9.42528 11.5851 9.09547 12.5902C8.63958 13.9449 8.84932 15.4009 9.4838 16.662C10.4109 18.5046 12.2096 20.0908 13.8609 21.5471C14.299 21.9334 14.7267 22.3106 15.125 22.6811L16.8571 24.2965C16.9398 24.3737 17.0228 24.4543 17.1065 24.5356C17.3578 24.7797 17.6161 25.0307 17.8993 25.2184C18.0245 25.1874 18.1286 25.0919 18.2254 25.0032C18.2384 24.9912 18.2513 24.9793 18.2642 24.9678C19.1462 24.1726 19.9977 23.3376 20.8481 22.5038C21.2336 22.1257 21.619 21.7479 22.0068 21.3741C22.4762 20.9215 22.9516 20.4745 23.427 20.0275C24.0977 19.3968 24.7686 18.766 25.4232 18.1192C25.9192 17.6291 26.4003 17.124 26.866 16.6045C27.7103 15.6649 28.4694 14.6521 29.1347 13.578C29.3646 13.1987 29.5574 12.8055 29.7503 12.4123C29.893 12.1211 30.0358 11.8299 30.1937 11.5444C30.685 10.6541 31.5354 9.92293 32.3489 9.33677C34.6874 9.7966 36.9249 9.98226 38.9996 8.58281C39.4258 8.29515 40.6831 7.33544 40.8378 6.83812C40.7932 6.72143 40.7337 6.69222 40.6214 6.63897C40.3801 6.52432 40.1085 6.45072 39.8469 6.37978C39.8053 6.36852 39.764 6.35732 39.7231 6.34604C38.2897 5.95034 36.7655 5.8854 35.3621 6.43493C34.4595 6.78839 33.5064 7.37763 32.8527 8.10079C32.7427 8.22232 32.6413 8.35374 32.5399 8.48511C32.4026 8.66291 32.2653 8.84085 32.1064 8.99492C31.8477 9.24585 31.5695 9.48129 31.291 9.71705C31.0487 9.92207 30.8061 10.1274 30.5758 10.3433C30.6474 9.79719 30.8134 9.43959 30.9925 9.05371C31.0964 8.83 31.2046 8.59678 31.3015 8.31181C32.106 5.94614 31.714 3.69557 30.1911 1.72025C30.1658 1.68748 30.1368 1.64887 30.1046 1.60615ZM21.7277 9.45681C21.8292 9.44939 21.9303 9.44956 22.0318 9.45102C23.0694 9.46936 24.0551 9.90494 24.7675 10.6593C25.6667 11.5983 26.0976 12.9453 26.0608 14.2322C26.0308 15.2656 25.7001 16.2515 25.1646 17.1305C24.3685 18.4361 23.1859 19.5316 22.0463 20.5872C21.7814 20.8325 21.5187 21.0759 21.2637 21.3192L17.912 24.5368C16.8462 23.5074 15.742 22.5105 14.6402 21.5158L14.6364 21.5124C14.3427 21.2472 14.0484 20.9815 13.7558 20.7161L13.7467 20.7081C12.2055 19.357 10.3886 17.764 9.67998 15.7926C9.27828 14.6749 9.26157 13.4345 9.77641 12.3498C10.1668 11.5155 10.8793 10.8754 11.7506 10.5765C12.6921 10.2536 13.7205 10.3616 14.6069 10.7983C15.5718 11.2738 16.3269 12.146 16.7253 13.1393C16.7965 13.3168 16.8517 13.5003 16.9068 13.6838C16.9436 13.8065 16.9805 13.9292 17.0222 14.0501C17.127 14.1345 17.1562 14.1421 17.2896 14.1661C17.3765 14.1093 17.5805 13.4677 17.7562 12.9155C17.862 12.5831 17.9575 12.2829 18.011 12.1619C18.2015 11.7245 18.4542 11.3169 18.7611 10.9517C19.5373 10.0306 20.5402 9.5606 21.7277 9.45681ZM24.657 11.2234C23.1872 11.2425 21.7174 11.2468 20.2476 11.2361C19.9197 12.1284 19.5075 13.005 19.0986 13.8744C18.9478 14.1951 18.7971 14.5154 18.6516 14.8346C17.6109 17.1185 16.5582 19.3966 15.4936 21.6692C15.7176 21.865 15.9386 22.0638 16.1568 22.266C16.752 20.8542 17.4076 19.4675 18.0632 18.0809C18.7368 16.6562 19.4105 15.2315 20.0184 13.7796L20.0887 13.6679C20.1531 13.7345 20.1556 13.8358 20.1579 13.9296C20.1582 13.9423 20.1585 13.955 20.159 13.9674C20.18 14.5255 20.1727 15.0891 20.1654 15.6513C20.1618 15.9356 20.1581 16.2196 20.1581 16.5023L20.1671 21.6868C20.4092 21.456 20.6505 21.2219 20.8923 20.9874C21.5376 20.3613 22.1865 19.7318 22.8646 19.1516C22.8822 17.9782 22.8861 16.8048 22.8762 15.6315C22.8754 15.4519 22.8714 15.2691 22.8674 15.0847C22.854 14.4751 22.8402 13.8482 22.9409 13.2623C23.0069 12.877 23.1247 12.4741 23.41 12.193C23.8165 11.792 24.415 11.7109 24.9599 11.6838C24.9285 11.6359 24.8973 11.5878 24.8661 11.5396C24.7974 11.4335 24.7286 11.3272 24.657 11.2234ZM30.8273 3.52817C30.5476 2.88808 29.7572 1.55019 29.1716 1.19206C28.4472 3.36385 28.2994 5.13749 29.3417 7.23971C29.6429 7.84703 30.0121 8.41207 30.3835 8.97758C30.4701 7.16889 30.2803 5.54249 29.8258 3.79399L29.905 3.71354C30.131 3.8423 30.33 4.57599 30.4169 4.89657C30.4235 4.92091 30.4297 4.94361 30.4349 4.96271C30.7597 6.13944 30.8282 7.28601 30.8218 8.4977C31.4554 6.86984 31.5342 5.14696 30.8273 3.52817ZM37.0205 6.45554C38.1531 6.37882 39.2421 6.58389 40.3255 6.89987C39.8658 7.42181 39.3085 7.89865 38.7315 8.28578C36.9468 9.48324 34.9428 9.42216 32.9153 9.02093C33.3835 8.76347 33.889 8.56119 34.3855 8.36473C35.1275 8.08667 35.8964 7.88331 36.6675 7.70502C36.7857 7.67769 36.9074 7.65827 37.0293 7.63883C37.2042 7.61093 37.3794 7.58297 37.5453 7.53152C37.6241 7.50702 37.6845 7.48037 37.7419 7.41868C37.7759 7.38225 37.7754 7.37886 37.7709 7.34834C37.7696 7.33965 37.768 7.32874 37.7667 7.31424C37.7645 7.31289 37.7623 7.31147 37.7601 7.31002C37.7584 7.30889 37.7567 7.30774 37.755 7.30659C37.7478 7.30166 37.7406 7.29677 37.7325 7.29329C37.6229 7.24593 37.418 7.27198 37.2592 7.29219C37.215 7.2978 37.1744 7.30297 37.1404 7.30597C35.7019 7.43338 34.4116 7.90456 33.0879 8.44552C34.1662 7.33228 35.4749 6.62801 37.0205 6.45554Z" fill="#B09A0C"/>
    <path fill-rule="evenodd" clip-rule="evenodd" d="M24.6575 11.2234C23.1877 11.2425 21.7179 11.2467 20.2481 11.2361C19.9202 12.1283 19.5081 13.0047 19.0992 13.8741C18.9483 14.195 18.7977 14.5152 18.6521 14.8346C17.6114 17.1184 16.5587 19.3966 15.4941 21.6692C15.7181 21.865 15.9391 22.0637 16.1573 22.2659C16.7525 20.8542 17.4081 19.4676 18.0637 18.081C18.7373 16.6563 19.4109 15.2315 20.0189 13.7796L20.0892 13.6679C20.1536 13.7344 20.1561 13.8355 20.1584 13.9293C20.1587 13.9422 20.159 13.9549 20.1595 13.9673C20.1805 14.5255 20.1732 15.089 20.1659 15.6512C20.1623 15.9355 20.1586 16.2195 20.1586 16.5023L20.1676 21.6867C20.4097 21.4559 20.651 21.2219 20.8928 20.9873C21.5381 20.3613 22.187 19.7318 22.8651 19.1516C22.8827 17.9782 22.8866 16.8048 22.8767 15.6315C22.8759 15.4519 22.8719 15.269 22.8679 15.0846C22.8545 14.4751 22.8408 13.8482 22.9414 13.2623C23.0074 12.877 23.1252 12.474 23.4105 12.193C23.817 11.792 24.4155 11.7109 24.9604 11.6837C24.929 11.6359 24.8978 11.5877 24.8666 11.5396C24.7979 11.4335 24.7291 11.3271 24.6575 11.2234Z" fill="white"/>
    <path d="M20.2472 11.2361C21.717 11.2467 23.1867 11.2425 24.6565 11.2234C24.7606 11.3742 24.8587 11.5303 24.9594 11.6837C24.4145 11.7109 23.816 11.792 23.4095 12.193C23.1242 12.474 23.0064 12.877 22.9404 13.2623C22.8093 14.0254 22.8723 14.8581 22.8757 15.6315C22.8856 16.8048 22.8817 17.9782 22.8642 19.1516C21.932 19.9492 21.0551 20.8398 20.1666 21.6867L20.1576 16.5023C20.1576 15.6604 20.1902 14.8077 20.1585 13.9673C20.1546 13.8638 20.1615 13.7435 20.0882 13.6679L20.018 13.7796C18.8183 16.6444 17.3632 19.4034 16.1563 22.2659C15.9382 22.0637 15.7171 21.865 15.4932 21.6692C16.5578 19.3966 17.6105 17.1184 18.6511 14.8346C19.1913 13.6497 19.7982 12.4577 20.2472 11.2361Z" fill="black"/>
    <path d="M30.7832 11.231C31.5102 11.259 36.446 11.1841 36.6217 11.2725C36.6328 11.3304 36.6487 11.3949 36.6495 11.4546C36.6508 11.6217 36.6367 11.6595 36.4696 11.6765C35.298 11.7961 34.5183 12.0083 33.587 12.7888C32.6201 13.5989 31.7419 14.559 30.8543 15.454L26.8999 19.4129C28.8289 21.5711 30.704 23.7738 32.6158 25.9466C33.6585 27.132 35.0302 28.947 36.2948 29.7824C36.7073 30.0553 37.1919 30.302 37.6742 30.422C38.0362 30.5119 38.552 30.5175 38.8728 30.7038C38.8737 30.8311 38.902 30.9322 38.8244 31.0367C38.1364 31.0932 37.4185 31.044 36.7266 31.0341C35.54 31.0089 34.3525 31.0033 33.1655 31.017C32.7435 31.0221 30.8355 31.1258 30.5742 31.0457L30.5416 30.894C30.6697 30.5098 31.3264 30.589 31.6447 30.3586C31.8045 30.2429 31.8966 30.0891 31.9146 29.8916C31.9411 29.6055 31.8319 29.3304 31.6914 29.0875C31.332 28.4642 30.7858 27.9095 30.3188 27.3616L28.0964 24.7583C27.0867 23.5875 26.0877 22.4022 25.045 21.2605C24.327 21.9845 23.585 22.681 22.8722 23.4119L22.8744 26.7708C22.8752 27.4275 22.8401 28.1155 22.9116 28.7684C23.0667 30.1778 23.6707 30.4986 25.0026 30.5997C25.2322 30.6173 25.4605 30.6087 25.6486 30.7574C25.6966 30.8688 25.7034 30.8928 25.691 31.0127C25.5732 31.0705 25.4262 31.0731 25.2973 31.0748C23.6613 31.0971 22.0189 31.0483 20.3816 31.0564C19.6812 31.0603 18.1189 31.1511 17.4908 31.0487C17.4791 30.9934 17.4632 30.9335 17.462 30.8765C17.4613 30.8469 17.4667 30.6961 17.4826 30.6747C17.5041 30.6456 19.1247 30.6199 19.6503 30.0823C19.8812 29.8462 20.0003 29.5022 20.0624 29.1839C20.2111 28.4223 20.1537 27.5955 20.1503 26.8231C20.1434 25.8382 20.1425 24.8534 20.1485 23.8685C21.013 22.9753 21.9512 22.1353 22.8581 21.2845L22.8731 22.3019C23.618 21.5171 24.4273 20.7782 25.1975 20.0161L29.184 16.0172C29.9603 15.2364 30.8248 14.466 31.526 13.6196C31.7119 13.3948 31.9433 13.0987 31.9831 12.8048C32.0157 12.5623 31.9878 12.32 31.8276 12.1265C31.5492 11.7902 31.0749 11.7433 30.6718 11.6953L30.7832 11.231Z" fill="black"/>
    <path d="M0.331055 11.244C2.10791 11.2555 3.88481 11.2526 5.66163 11.2354C6.37485 12.9469 7.18364 14.6246 7.94753 16.3143L12.9192 27.2875C13.5511 25.8939 14.2018 24.5089 14.8712 23.133C15.0787 23.3116 15.2747 23.507 15.4742 23.6946C14.6897 25.3777 13.9161 27.066 13.1534 28.759C12.8529 29.4174 12.4693 30.4562 12.0801 31.0401C11.9726 31.0598 11.871 31.0898 11.7636 31.0568C11.1836 30.0373 10.6637 28.6934 10.167 27.604L7.04373 20.7426C5.99106 18.5822 5.00003 16.3798 4.01071 14.1897C4.07861 17.492 4.01881 20.8103 4.01962 24.114C4.01992 25.4968 3.8915 27.8379 4.19004 29.1107C4.43392 30.1508 5.1288 30.5226 6.13028 30.5963C6.38264 30.6152 6.68268 30.5989 6.90326 30.7377C6.96589 30.8499 6.96979 30.8718 6.9676 31.0007C6.95616 31.0076 6.9455 31.0161 6.93333 31.0221C6.82495 31.0748 6.67656 31.0748 6.55738 31.077C5.22219 31.1022 3.87877 31.0705 2.54272 31.0714C2.04918 31.0714 0.806605 31.1493 0.384388 31.041C0.34502 30.9514 0.338638 30.915 0.358686 30.8191C0.586116 30.5166 1.76529 30.5783 2.24637 30.2832C2.70611 30.0008 2.94403 29.5498 3.06835 29.0395C3.33451 27.9472 3.21846 26.6731 3.21542 25.5499L3.20582 20.8947L3.20299 16.2379C3.20231 15.3758 3.24485 14.4906 3.17541 13.6326C3.14521 13.2595 3.06655 12.9204 2.86431 12.5984C2.27515 11.6604 1.31073 11.8446 0.395569 11.6339C0.314133 11.5191 0.335638 11.3827 0.331055 11.244Z" fill="black"/>
  </g>
  <defs>
    <clipPath id="clip0_8242_9487">
      <rect width="41" height="32" fill="white"/>
    </clipPath>
  </defs>
</svg>